<?xml version="1.0" encoding="UTF-8"?>
<!-- Generator: visioncortex VTracer 0.6.12 -->
<svg version="1.1" xmlns="http://www.w3.org/2000/svg" width="1024" height="983">
<path d="M0 0 C7.259372894079604 3.835140396872248 10.562732638317925 8.362210224339947 13.12109375 15.95703125 C17.582384394205917 31.403010858161792 17.310843592444314 47.73288585097595 16.25 63.625 C16.20298950195314 64.36622100830078 16.155979003906253 65.10744201660157 16.1075439453125 65.87112426757813 C15.310259045128703 78.35083835375349 14.04261436611148 90.66063127809008 12 103 C11.785837686566026 104.31896253042646 11.57199181151276 105.63797646579195 11.3583984375 106.95703125 C8.538534040519124 124.30347729937648 5.4955442901326705 141.56784011649313 1.53173828125 158.6953125 C1.0282305243940755 160.8776418042791 0.5404230646088308 163.0627963798555 0.05859375 165.25 C-1.8625173370318748 173.86251733703187 -1.8625173370318748 173.86251733703187 -3 175 C-6.437499999999886 175.1875 -6.437499999999886 175.1875 -10 175 C-10.659999999999997 174.34000000000003 -11.319999999999993 173.68 -12 173 C-11.593167443479501 165.30208986191627 -9.800033344581777 157.83303043557873 -8.1875 150.3125 C-1.115597907175868 116.6206918204557 5.050980922322765 82.45783287806523 5.25 47.9375 C5.259345703125007 46.8435693359375 5.268691406250014 45.749638671875005 5.2783203125 44.62255859375 C5.236962865982605 34.13208321750869 4.968669331715432 22.04658940521324 -1 13 C-3.25 11.125 -3.25 11.125 -6 11 C-8.228013075933035 12.116152986016573 -10.203814691633283 13.386666720211906 -12.23046875 14.8359375 C-14 16 -14 16 -16 16 C-16.246210937499995 16.564609374999975 -16.49242187499999 17.129218750000007 -16.74609375 17.7109375 C-18.214069050881193 20.390792722169408 -19.993566899497267 22.37958803248523 -22.0625 24.625 C-25.90277777777777 28.805555555555543 -25.90277777777777 28.805555555555543 -27 31 C-27.659999999999997 31 -28.319999999999993 31 -29 31 C-29.329999999999984 31.99000000000001 -29.329999999999984 31.99000000000001 -31 37 C-31.659999999999997 37 -32.31999999999999 37 -33 37 C-33.22687500000001 37.82499999999999 -33.453750000000014 38.64999999999998 -33.6875 39.5 C-34.73390811184504 42.290421631586696 -35.63576723195658 44.10472093574447 -37.2421875 46.51953125 C-40.42807267542415 51.53060917904111 -42.91958122100122 56.817589680169704 -45.4375 62.1875 C-45.67863525390625 62.69829101562499 -45.67863525390625 62.69829101562499 -46.89892578125 65.283203125 C-47.84762782744912 67.29507817544987 -48.79432019986075 69.30790240932049 -49.73876953125 71.32177734375 C-50.76902149665743 73.50951719286331 -51.812948279511744 75.6889687654184 -52.87109375 77.86328125 C-56.10246463592355 84.60299766921196 -58.58752761784936 91.37474424099139 -60.82421875 98.4921875 C-62 102 -62 102 -63.50390625 105.48046875 C-65.03225745957366 109.07588504197355 -66.19106214538488 112.68612223055936 -67.25 116.4375 C-67.683178351875 117.94933783343566 -68.1167976821456 119.46104936262054 -68.55078125 120.97265625 C-68.78232910156251 121.7823486328125 -69.01387695312499 122.592041015625 -69.25244140625 123.42626953125 C-70.03578401690604 126.12319892430548 -70.84900948003533 128.80977623611363 -71.66796875 131.49609375 C-76.21164907853174 146.5160437001631 -79.78212315634333 161.64546746476321 -83 177 C-83.32260717836384 178.50397266958822 -83.64548045059324 180.00788831380498 -83.96875 181.51171875 C-92.44412569690087 222.06639145967074 -97.62376921775576 277.16047623431973 -74.91796875 314.328125 C-74 316 -74 316 -74 318 C-73.34 318 -72.68 318 -72 318 C-70.64613064318605 319.650028278617 -69.31321857560563 321.31743870000537 -68 323 C-67.34 323.3299999999999 -66.68 323.6600000000001 -66 324 C-66 324.6600000000001 -66 325.31999999999994 -66 326 C-64.00491932763508 326.68124705885634 -62.00361307297746 327.3442720852074 -60 328 C-58.989374999999995 328.391875 -57.97874999999999 328.78375000000005 -56.9375 329.1875 C-46.92735433577944 331.8656530066555 -37.92734356721698 328.63979574864334 -29.18359375 323.921875 C-25.741487741793122 321.8439410662113 -22.541901968571068 319.6381488129624 -19.453125 317.06640625 C-18 316 -18 316 -16 316 C-16 315.3399999999999 -16 314.68000000000006 -16 314 C-14.707031250000028 312.765625 -14.707031250000028 312.765625 -12.8125 311.25 C-4.868098246869067 304.495134338247 2.561658246724761 296.5687278220821 8.6875 288.125 C9.069062500000001 287.609375 9.069062500000001 287.609375 11 285 C11.659999999999997 285 12.319999999999993 285 13 285 C13.271992187500018 284.2587890625 13.54398437499998 283.517578125 13.82421875 282.75390625 C14.939311640083105 280.14214383302794 16.133023871544708 278.2122334904394 17.8125 275.9375 C28.103704241454636 261.5169768009555 37.33053226579838 246.4401253451183 46 231 C46.57234374999999 229.98679687499998 47.1446875 228.97359374999996 47.734375 227.9296875 C52.087316785409456 220.08971170369796 56.01814746413086 212.03221707768114 60 204 C61.91352255649031 200.144262296026 63.831020275966694 196.29052409597534 65.75 192.4375 C66.20979248046876 191.50961669921878 66.6695849609375 190.5817333984375 67.143310546875 189.625732421875 C69.61969361454038 184.65448245152254 72.20166093804175 179.79715267764266 75 175 C75.68023669552673 173.67353844372292 76.35492261126959 172.34391122652164 77 171 C77.66 171 78.32 171 79 171 C79.16499999999999 170.31937500000004 79.33000000000001 169.63874999999996 79.5 168.9375 C82.26489963592746 163.52290487964206 87.23282022058228 159.51620333036203 92.75 157 C98.20389538625483 155.33174964655734 103.54399036684674 155.3973407207851 109 157 C113.05524316170818 159.4593087561327 116.23634260933693 162.1308796530717 119 166 C119.5431921692491 168.96335529956673 119.1037898027771 170.11788218163747 118 173 C112.25 174.125 112.25 174.125 110 173 C110 172.34000000000003 110 171.68 110 171 C109.34000000000003 171 108.68 171 108 171 C108 170.34000000000003 108 169.68 108 169 C102.04100010324089 167.11821055891818 98.85789639391515 166.8032888522818 93 169 C93 169.65999999999997 93 170.32 93 171 C92.34000000000003 171 91.68 171 91 171 C91 171.65999999999997 91 172.32 91 173 C90.34 173 89.68 173 89 173 C89 173.65999999999997 89 174.32 89 175 C88.34 175 87.68 175 87 175 C86.8865625 175.40218749999997 86.8865625 175.40218749999997 86.3125 177.4375 C85.26228545633057 180.28808233281705 84.2286657351926 182.37858330760469 82.6875 184.9375 C77.27937090645713 194.45388146133803 74.25010431207602 205.06362053558564 74 216 C74.77085937499999 214.989375 75.54171875 213.97875 76.3359375 212.9375 C77.34863184427371 211.62474807223782 78.36167049864545 210.31226170425407 79.375 209 C79.88289062499999 208.332265625 80.39078125 207.66453124999998 80.9140625 206.9765625 C81.40390625 206.34492187499995 81.89375000000001 205.71328125000002 82.3984375 205.0625 C82.84880371093749 204.47597656250002 83.299169921875 203.88945312500005 83.76318359375 203.28515625 C83.96725830078125 203.07310546875 83.96725830078125 203.07310546875 85 202 C85.66 202 86.32 202 87 202 C87.28875 201.23687500000005 87.57749999999999 200.47375 87.875 199.6875 C89 197 89 197 91 194 C91.65999999999997 194 92.32 194 93 194 C93.28875 193.23687500000005 93.57749999999999 192.47375 93.875 191.6875 C95 189 95 189 97 186 C97.65999999999997 186 98.32 186 99 186 C99.268125 185.236875 99.53625 184.47375 99.8125 183.6875 C101.60854092526688 179.6227758007118 101.60854092526688 179.6227758007118 104 178 C107.0625 177.6875 107.0625 177.6875 110 178 C112.54740446355424 180.54740446355424 112.38730664838062 181.8097644914592 112.7109375 185.35546875 C112.81937988281254 186.44649902343747 112.92782226562497 187.537529296875 113.03955078125 188.66162109375 C113.15024902343748 189.82516113281247 113.26094726562496 190.988701171875 113.375 192.1875 C114.4136772643476 202.17878156390236 115.98879819526235 211.4238357020505 119 221 C119.34461171432577 222.3304629477134 119.68341524758216 223.66259094386737 120 225 C120.65999999999997 225 121.32 225 122 225 C122 225.65999999999997 122 226.31999999999994 122 227 C123.73046875 227.65625 123.73046875 227.65625 126 228 C132.31381674100624 225.1056810503336 139.84053901781226 219.31892196437548 143 213 C143.65999999999997 213 144.32 213 145 213 C145.11343750000003 212.57718750000004 145.11343750000003 212.57718750000004 145.6875 210.4375 C146.95202734132926 207.12564267747098 148.59507480668776 204.78900856235452 150.669677734375 201.950927734375 C152.856258005737 198.74429111326037 154.50613796620894 195.30304691225626 156.1875 191.8125 C156.52974609375002 191.11447265624997 156.87199218749998 190.4164453125 157.224609375 189.697265625 C157.85856914609008 188.4034952960376 158.49002644053314 187.10849285032128 159.117919921875 185.811767578125 C159.71394139790442 184.58755629287327 160.34641623083206 183.3805331588236 161.010986328125 182.192138671875 C162.32317248337165 179.28369150130982 162.91928434965342 176.40044546444238 163.59375 173.28125 C163.7415087890625 172.60652648925782 163.889267578125 171.93180297851563 164.04150390625 171.23663330078125 C164.36320664130164 169.76530904162115 164.68252837005713 168.2934626300788 164.999755859375 166.8211669921875 C165.86406448343945 162.81071592176636 166.74588771422373 158.80410201264192 167.625 154.796875 C167.81171264648435 153.94345520019533 167.99842529296876 153.09003540039066 168.1907958984375 152.21075439453125 C170.56565460235652 141.37661216773802 173.03509125695342 130.56393584543605 175.5 119.75 C175.94991013073428 117.77409772638174 176.39978083023357 115.79818647385514 176.849609375 113.822265625 C177.89880608690305 109.21463056341878 178.94906679162733 104.60723928756954 180 100 C179.6115893554687 100.0328308105469 179.6115893554687 100.0328308105469 177.64599609375 100.198974609375 C165.82706306105888 101.09739831959422 154.00669385582466 101.30263112444652 142.158203125 101.502685546875 C138.63923929124036 101.56225893958305 135.12041091516028 101.6273502938509 131.6015625 101.693359375 C121.72219070957408 101.8739766234549 111.84194915993476 102.0392115500685 101.9609375 102.08984375 C101.30375732421874 102.09367065429689 101.30375732421874 102.09367065429689 97.97802734375 102.113037109375 C95 102 95 102 93 101 C93 98.36000000000001 93 95.72000000000003 93 93 C99.92270503907764 89.53864748046118 110.54326596637475 90.8278828980446 118.1953125 90.71875 C119.21931152343751 90.70065780639646 120.24331054687502 90.68256561279298 121.29833984375 90.66392517089844 C123.464186065469 90.62577543755799 125.63006082334277 90.58921580077367 127.79595947265625 90.55416870117188 C133.38497588707628 90.46322665420348 138.9737426553463 90.35945555124363 144.5625 90.25390625 C145.6490286254883 90.2334474182129 146.73555725097657 90.21298858642581 147.85501098632813 90.19190979003906 C159.5776494700819 89.96287295604316 171.28779002290815 89.54719072457584 183 89 C183.268125 87.75992187500003 183.53625 86.51984375 183.8125 85.2421875 C186.19251436716172 74.40995085644778 188.76160255187494 63.62565304554437 191.543212890625 52.88970947265625 C191.88820528947963 51.551221685421524 192.22841259782143 50.21149103445515 192.563720703125 48.87054443359375 C193.0404989776876 46.97010245285509 193.5374841449664 45.0747652612331 194.03515625 43.1796875 C194.31754150390623 42.08382324218752 194.5999267578125 40.987958984374984 194.890869140625 39.85888671875 C196.1169171854241 36.69863520992379 197.34651517184386 35.087623872695985 200 33 C203.39154295397054 33.16150204542714 204.5829675728117 33.5829675728117 207 36 C206.64181414008738 42.99276485602121 204.62133911751403 49.595587039901886 202.75 56.3125 C202.16072799638272 58.45422627323671 201.57220713745312 60.596159334259255 200.984375 62.73828125 C200.83065429687497 63.29684814453128 200.83065429687497 63.29684814453128 200.052734375 66.12353515625 C197.9745460127118 73.73265601568227 195.9972637699442 81.3693371753883 194 89 C194.76291854858397 88.98747192382814 195.525837097168 88.97494384765628 196.31187438964844 88.9620361328125 C229.70654865195496 88.417459596274 263.10023852933307 87.9001334326075 296.5 87.875 C297.06963973999024 87.87375122070313 297.06963973999024 87.87375122070313 299.9523620605469 87.867431640625 C311.464485398215 87.84649460684699 322.9639486181088 87.94764022347755 334.46875 88.3828125 C335.38402465820315 88.41317596435545 336.29929931640623 88.44353942871095 337.2423095703125 88.47482299804688 C343.3173245414409 88.73998665487744 349.0742372669988 89.64414393032274 355 91 C355 91.65999999999997 355 92.32 355 93 C355.6600000000001 93 356.31999999999994 93 357 93 C357.125 95.875 357.125 95.875 357 99 C356.3399999999999 99.65999999999997 355.68000000000006 100.32 355 101 C353.056640625 100.996337890625 353.056640625 100.996337890625 350.65625 100.66015625 C298.4365780545051 94.32852102660877 243.47219171878055 99.30551428862168 191 100 C190.8642808532715 100.74801879882813 190.72856170654296 101.49603759765625 190.58872985839844 102.2667236328125 C190.4992835235596 102.75928649902346 190.4992835235596 102.75928649902346 190.046630859375 105.251953125 C189.86966171264646 106.22684692382813 189.69269256591798 107.20174072265627 189.51036071777344 108.2061767578125 C188.8826871111812 111.64219573328444 188.2336562475781 115.07217374118306 187.5625 118.5 C187.3369140625 119.66531250000003 187.111328125 120.830625 186.87890625 122.03125 C186.2657254637108 124.96626702354706 185.4946390733279 127.82802623108984 184.671875 130.7109375 C182.5100423861852 138.5092864533226 180.9308449634359 146.43660023894063 179.26959228515625 154.35308837890625 C176.3357808826712 168.32383859845726 173.30333394398002 182.24893676334 169.8896484375 196.111083984375 C168.27811948615187 202.69909183675668 166.95314181942808 209.27759148685323 165.76953125 215.95703125 C164.8821422759525 220.7994315475039 163.74238147869715 225.58149706444294 162.625 230.375 C160.5435922959786 239.3573441253169 158.72183445291927 248.36897508355503 157.013916015625 257.42919921875 C155.8287251608781 263.7073843770363 154.61156693034775 269.9771448181102 153.33984375 276.23828125 C147.49148794558982 305.04531487772306 142.28232397808677 333.91556264074984 138 363 C138.99 363.3299999999999 139.98000000000002 363.6600000000001 141 364 C141.34615997834567 369.65394631297977 140.43425238037196 373.03006805674056 138 378 C137.34000000000003 378 136.68 378 136 378 C136 378.6600000000001 136 379.31999999999994 136 380 C132.6874999999999 380.3125 132.6874999999999 380.3125 129 380 C125.12717313508813 375.2133600546033 125.89317428684177 371.2900229972738 126.499267578125 365.46630859375 C128.28116940222333 349.1682263583343 130.90841951371158 333.00544119120275 133.8125 316.875 C133.9864126586914 315.90098236083986 134.16032531738279 314.9269647216797 134.33950805664063 313.9234313964844 C136.83257006755025 299.97904397702064 139.5661214308821 286.11958750973236 142.6328125 272.2890625 C144.0703536701913 265.7785622214608 145.32834483861689 259.23916996848743 146.5625 252.6875 C148.81563235273643 240.74042533449824 151.34847679208923 228.86450063063876 154 217 C153.517890625 217.72187499999995 153.03578125 218.44375000000002 152.5390625 219.1875 C151.907421875 220.11562500000002 151.27578125000002 221.04375000000005 150.625 222 C149.99851562499998 222.92812500000002 149.37203124999996 223.85625000000005 148.7265625 224.8125 C148.156796875 225.53437499999995 147.58703125 226.25625000000002 147 227 C146.34000000000003 227 145.68 227 145 227 C145 227.65999999999997 145 228.31999999999994 145 229 C144.34000000000003 229 143.68 229 143 229 C143 229.65999999999997 143 230.31999999999994 143 231 C142.175 231.32999999999993 142.175 231.32999999999993 138 233 C138 233.65999999999997 138 234.31999999999994 138 235 C132.64409645342243 237.72045894429334 128.13349583335463 240.00366295454887 122 239 C117.78584279338145 237.12362343354948 114.69876243946305 235.3101795739933 112.5 231.1875 C112.33500000000004 230.46562500000005 112.16999999999996 229.74374999999998 112 229 C111.34000000000003 229 110.68 229 110 229 C106.08707373630511 219.1016885029063 103.6764397312686 209.494785309568 102 199 C101.54624999999999 199.82500000000005 101.09249999999997 200.64999999999998 100.625 201.5 C100.08875 202.32500000000005 99.55250000000001 203.14999999999998 99 204 C98.34000000000003 204 97.68 204 97 204 C96.7408984375 204.56718750000005 96.48179687499999 205.13437499999998 96.21484375 205.71875 C94.88347494746597 208.21881231729867 93.32605604111683 210.28512531610272 91.5625 212.5 C89.79066325811684 214.73488694872526 88.03869109004498 216.9447540425764 86.40234375 219.28125 C85.9395703125 219.84843750000005 85.47679687499999 220.41562499999998 85 221 C84.34 221 83.68 221 83 221 C83 221.65999999999997 83 222.31999999999994 83 223 C82.34 223 81.68 223 81 223 C81 223.65999999999997 81 224.31999999999994 81 225 C76.4214535480371 227.93496567433522 73.26850145199296 228.22850532428947 68.05078125 227.71484375 C65.36457350599875 226.77850847923378 64.49544022440625 225.3594723540632 63 223 C62.610703124999986 223.81339843750004 62.22140625 224.62679687499997 61.8203125 225.46484375 C54.34921451644939 240.76854445824074 45.45722848692702 255.00446512469136 36.0625 269.1875 C35.85534866333006 269.5019506835938 35.85534866333006 269.5019506835938 34.807037353515625 271.09326171875 C29.3089435467667 279.4219537523501 23.496934322464256 287.383195307174 17.247802734375 295.165283203125 C15 298 15 298 13 301 C12.340000000000003 301 11.680000000000007 301 11 301 C10.752499999999998 301.5633203125001 10.504999999999995 302.12664062499994 10.25 302.70703125 C5.756841932798636 310.94916807952245 -2.6786771122202993 318.2702690443464 -10 324 C-10.659999999999997 324 -11.319999999999993 324 -12 324 C-12 324.6600000000001 -12 325.31999999999994 -12 326 C-12.659999999999997 326 -13.319999999999993 326 -14 326 C-14 326.6600000000001 -14 327.31999999999994 -14 328 C-27.997534966822855 338.1556583482693 -41.86857511800142 342.5845212068606 -59 341 C-62.44294487605032 340.1597034273492 -65.04542407440314 338.92232868799294 -68 337 C-68.3802734375 336.78408203125 -68.3802734375 336.78408203125 -70.3046875 335.69140625 C-74.29951165329788 333.36224407065515 -74.29951165329788 333.36224407065515 -76 332 C-76 331.3399999999999 -76 330.68000000000006 -76 330 C-76.66 330 -77.32 330 -78 330 C-80.62695491503999 326.8787984128005 -82.78564353320635 323.4213432201823 -85 320 C-85.26103515625 319.60232421875 -85.26103515625 319.60232421875 -86.58203125 317.58984375 C-93.52236477913806 306.0348293518837 -97.38503299943297 291.3320680046811 -99 278 C-99.087333984375 277.3258203125 -99.17466796875 276.651640625 -99.2646484375 275.95703125 C-105.96359602371221 222.81655814186536 -95.346279170999 169.71738742589474 -80 119 C-79.70673828125 118.0291748046875 -79.4134765625 117.058349609375 -79.111328125 116.05810546875 C-78.31254462645974 113.43162046633267 -77.5041483899324 110.8084805514311 -76.6875 108.1875 C-76.45732177734375 107.44725585937499 -76.2271435546875 106.70701171874998 -75.989990234375 105.9443359375 C-74.5744419274049 101.5030336586455 -72.85693179170602 97.28030166311015 -71 93 C-70.23416596581592 90.83887930079561 -69.48434991247288 88.67202086787756 -68.75 86.5 C-66.00193184342595 78.73978365337598 -62.6208298574348 71.38679061357459 -59 64 C-58.681279296875005 63.347412109375 -58.36255859375001 62.69482421875 -58.0341796875 62.0224609375 C-53.23739290789946 52.23280736038902 -48.181297142911774 42.59091173262391 -43 33 C-42.34 33 -41.68000000000001 33 -41 33 C-40.855625 32.38125000000002 -40.71125000000001 31.76249999999999 -40.5625 31.125 C-40 29 -40 29 -39 27 C-38.34 27 -37.68000000000001 27 -37 27 C-36.71125000000001 26.236874999999998 -36.422500000000014 25.473749999999995 -36.125 24.6875 C-35 22 -35 22 -33 19 C-32.34 19 -31.680000000000007 19 -31 19 C-30.861425781250006 18.704804687499973 -30.861425781250006 18.704804687499973 -30.16015625 17.2109375 C-24.500933480537327 6.426021380417922 -12.35975102010704 -1.7906353067999703 0 0 Z " fill="#061E29" transform="translate(165,320)"/>
<path d="M0 0 C0.6600000000000819 0.660000000000025 1.3199999999999363 1.3199999999999932 2 2 C1.625 5.624999999999773 1.625 5.624999999999773 1 9 C-2.860589316555206 9.914350101289358 -5.995383487446816 9.931796814301606 -9.875 9.375 C-15.748016519021121 8.70480592275436 -19.94994782467097 9.880246963115553 -24.79296875 13.24609375 C-26.967635137198386 14.986859955429622 -28.742528177702297 16.485056355404595 -30 19 C-30.660000000000082 19 -31.319999999999936 19 -32 19 C-35.627655614460764 30.746694370634827 -35.86498861424525 38.601626099765554 -31 50 C-29.226336980319502 53.239688556290275 -27.36395744653919 56.38222698057996 -25.390625 59.50390625 C-24 62 -24 62 -24 65 C-23.339999999999918 65 -22.680000000000064 65 -22 65 C-20.841142208808492 66.76516740874786 -19.773711249749226 68.59066956970923 -18.75 70.4375 C-16.080875131363996 75.17701522795528 -13.259161130617713 79.66099979904413 -10.06640625 84.0625 C-9 86 -9 86 -9 90 C-8.339999999999918 90 -7.680000000000064 90 -7 90 C-7 89.34000000000003 -7 88.68000000000006 -7 88 C-6.339999999999918 88 -5.680000000000064 88 -5 88 C-4.814374999999927 87.34000000000003 -4.628750000000082 86.68000000000006 -4.4375 86 C-2.6780111200382635 82.32802320703638 -0.300163549821832 79.75048968099134 2.44140625 76.76953125 C4 75 4 75 5 73 C5.660000000000082 73 6.319999999999936 73 7 73 C7 72.34000000000003 7 71.68000000000006 7 71 C7.660000000000082 71 8.319999999999936 71 9 71 C9.243632812499982 70.43667968750003 9.487265624999964 69.87335937500006 9.73828125 69.29296875 C11.238476791347694 66.56660719343324 13.061782618917732 64.5845662541343 15.1875 62.3125 C20.009313467615243 57.05586921485428 24.495788939335625 51.600582072298494 28.5703125 45.7421875 C29.042109374999995 45.16726562500003 29.51390624999999 44.592343750000055 30 44 C30.660000000000082 44 31.319999999999936 44 32 44 C32.12374999999997 43.72414062500002 32.12374999999997 43.72414062500002 32.75 42.328125 C34.24234473799265 39.54863292548862 36.03672523273633 37.21852930295648 38 34.75 C38.70125000000007 33.85796875 39.40249999999992 32.965937499999995 40.125 32.046875 C40.74374999999998 31.371406250000007 41.362499999999955 30.695937500000014 42 30 C42.66000000000008 30 43.319999999999936 30 44 30 C44.12374999999997 29.70093750000001 44.12374999999997 29.70093750000001 44.75 28.1875 C46.241387215353825 25.577572373130806 47.33519447480637 24.40642513829664 50 23 C53.25 23.3125 53.25 23.3125 56 24 C56.75 27.18750000000017 56.75 27.18750000000017 57 31 C54.60386361529265 34.87068185221955 51.2107693867988 37.7892306132012 48 41 C47.33999999999992 41.99000000000001 46.680000000000064 42.98000000000002 46 44 C45.33999999999992 44 44.680000000000064 44 44 44 C43.89236328125003 44.261679687499964 43.89236328125003 44.261679687499964 43.34765625 45.5859375 C41.459636042157285 48.96795630709221 38.975473597962946 51.71331710144068 36.4375 54.625 C31.119932432432506 60.7601351351351 31.119932432432506 60.7601351351351 30 63 C29.339999999999918 63 28.680000000000064 63 28 63 C27.769257812499973 63.550429687500014 27.538515624999945 64.10085937500003 27.30078125 64.66796875 C25.639890161273115 67.64560232348344 23.526210562425604 69.83353693008257 21.1875 72.3125 C18.234169261089164 75.49169874635993 15.439927373532328 78.59721647738479 13 82.1875 C12.339999999999918 83.11562500000002 11.680000000000064 84.04375000000005 11 85 C10.339999999999918 85 9.680000000000064 85 9 85 C8.339999999999918 86.64999999999998 7.680000000000064 88.29999999999995 7 90 C6.339999999999918 90 5.680000000000064 90 5 90 C4.752500000000055 90.53625 4.5049999999999955 91.07249999999999 4.25 91.625 C2.693474634129416 94.58239819515393 0.9656432680109219 97.29724050648497 -1 100 C-1.6600000000000819 100 -2.3199999999999363 100 -3 100 C-2.9790527343750455 100.81041748046869 -2.9581054687499773 101.62083496093749 -2.9365234375 102.455810546875 C-2.8674149315827435 105.5291707799638 -2.817755409411575 108.60212887416355 -2.7802734375 111.676025390625 C-2.750806733487252 113.63389776450128 -2.6999224219896405 115.59141099473857 -2.6484375 117.548828125 C-2.484700590578541 133.6359794756636 -7.979835433400808 147.47479429175098 -18 160 C-18.660000000000082 160 -19.319999999999936 160 -20 160 C-20 160.65999999999997 -20 161.31999999999994 -20 162 C-20.660000000000082 162 -21.319999999999936 162 -22 162 C-22 162.65999999999997 -22 163.31999999999994 -22 164 C-22.660000000000082 164 -23.319999999999936 164 -24 164 C-24 164.65999999999997 -24 165.31999999999994 -24 166 C-29.179317593900464 169.68307028899585 -33.159566186848906 170.70284304606503 -39.53515625 170.44921875 C-42 170 -42 170 -44.625 167.875 C-48.187523473684905 160.42608728229527 -46.34236165374068 154.44892522328553 -43.7392578125 146.9560546875 C-38.50601708625368 133.10905181475061 -30.175550329451767 120.2633254941776 -22 108 C-21.339999999999918 108 -20.680000000000064 108 -20 108 C-16.387060158910344 99.5698070374574 -16.387060158910344 99.5698070374574 -18.40625 94.3984375 C-19.08813452104721 93.04906975181768 -19.78701904525701 91.7081984016088 -20.5 90.375 C-20.684013671874936 90.01962158203128 -20.684013671874936 90.01962158203128 -21.615234375 88.22119140625 C-24.232933247939286 83.24148111482816 -27.110588160673842 78.48296349993882 -30.20703125 73.78515625 C-35.321234960238826 65.84087031230877 -39.91305296476503 57.51447299007282 -44 49 C-47.969523504051836 54.88885354996705 -51.7898766046394 60.844189290049826 -55.484375 66.91015625 C-55.98453124999992 67.59980468749995 -56.484687500000064 68.28945312500002 -57 69 C-57.66000000000008 69 -58.319999999999936 69 -59 69 C-59.206249999999955 69.53625 -59.41250000000002 70.07249999999999 -59.625 70.625 C-61.5325042603871 73.91978008612318 -64.04819383997892 76.59363628259155 -67 79 C-67.65999999999997 79 -68.31999999999994 79 -69 79 C-69 79.65999999999997 -69 80.31999999999994 -69 81 C-74.40753850643364 83.74668622549007 -78.79202945503448 85.81992063801431 -85 85 C-88.57911238064912 83.55458923089168 -91.59139479642909 82.07766220456278 -94 79 C-94 78.34000000000003 -94 77.68000000000006 -94 77 C-94.65999999999997 77 -95.31999999999994 77 -96 77 C-100.56728009340395 66.57387290153292 -102.89484326312106 56.13733759678405 -105 45 C-105.35304199218751 45.48468749999995 -105.70608398437503 45.969375000000014 -106.06982421875 46.46875 C-107.66490904051341 48.65077987784798 -109.269777162938 50.8254189484195 -110.875 53 C-111.43058593750004 53.763124999999945 -111.98617187499997 54.526250000000005 -112.55859375 55.3125 C-113.09355468750005 56.034374999999955 -113.62851562499998 56.75625000000002 -114.1796875 57.5 C-114.67194824218745 58.17031250000002 -115.16420898437502 58.840625000000045 -115.67138671875 59.53125 C-116.10982910156247 60.01593749999995 -116.54827148437494 60.500625000000014 -117 61 C-117.65999999999997 61 -118.31999999999994 61 -119 61 C-119 61.65999999999997 -119 62.319999999999936 -119 63 C-119.65999999999997 63 -120.31999999999994 63 -121 63 C-121.25394531250004 63.582656250000014 -121.50789062499996 64.16531250000003 -121.76953125 64.765625 C-123.95486853519833 68.73392000677279 -127.23931161297855 71.52907838831084 -131 74 C-134.96991382408896 74.52064443594611 -137.23506130103408 74.25497956632194 -141 73 C-145.62772000718803 67.147614042432 -144.44792007420597 60.071262810826056 -144 53 C-143.5226762514991 49.887196409348576 -142.85266984689508 47.03763632956384 -142 44 C-142.94875000000002 44.65999999999997 -143.89750000000004 45.32000000000005 -144.875 46 C-148 48 -148 48 -150 48 C-150 48.65999999999997 -150 49.32000000000005 -150 50 C-151.59381506359375 51.29590570591267 -153.25324781690892 52.511526939378086 -154.9375 53.6875 C-159.4904335878241 56.90514169578785 -163.8912544066444 60.24101622816761 -168.22265625 63.75 C-170 65 -170 65 -172 65 C-172 65.65999999999997 -172 66.31999999999994 -172 67 C-172.82500000000005 67.33000000000004 -172.82500000000005 67.33000000000004 -177 69 C-177 69.65999999999997 -177 70.31999999999994 -177 71 C-177.65999999999997 71 -178.31999999999994 71 -179 71 C-179 71.65999999999997 -179 72.31999999999994 -179 73 C-180.50390625 74.515625 -180.50390625 74.515625 -182.5625 76.25 C-183.28824218750003 76.87390625 -184.01398437500006 77.49781250000001 -184.76171875 78.140625 C-186.15980030113485 79.30203305993052 -187.57661525154367 80.44166274586325 -189.01953125 81.546875 C-189.6318359375 82.02640625000004 -190.244140625 82.50593749999996 -190.875 83 C-191.42929687499998 83.41250000000002 -191.98359374999995 83.82500000000005 -192.5546875 84.25 C-196.52780727195636 89.06069637253097 -196.76840964453618 97.0249425128925 -197.75 103 C-199.28678931957256 112.07341353497486 -200.9322445417131 121.12303039516883 -202.6722412109375 130.159423828125 C-203.05242145353725 132.1351243444068 -203.42909077993727 134.1114994416157 -203.8056640625 136.087890625 C-205.12779105466814 142.91622521105683 -206.61378845715456 149.6619067385327 -208.345947265625 156.397705078125 C-209.1661715711008 159.66115071906074 -209.8183946179464 162.94297746232257 -210.4375 166.25 C-213.63111110606621 182.4473404302537 -218.29546727800096 198.1898297211319 -223 214 C-223.36093749999998 215.22847656249996 -223.72187499999995 216.45695312500004 -224.09375 217.72265625 C-228.03602881321626 230.89190659587314 -232.10342231578863 244.2566352548772 -238.640625 256.39453125 C-239.9999999999999 258.9999999999998 -239.9999999999999 258.9999999999998 -241.4140625 262.390625 C-245.6303229383467 271.9862522045132 -251.92802178459385 282.36633381285276 -261 288 C-264.8797250770033 289.3998275460983 -268.13960728844313 289.1687044532464 -272.1875 288.375 C-277.61932782827023 285.7194397284013 -280.0595636579909 282.3983664595264 -282.25 276.875 C-284.1175965259722 271.2194960040117 -284.82544951326486 265.9347165489969 -285 260 C-285.01998046874996 259.40316406249997 -285.01998046874996 259.40316406249997 -285.12109375 256.3828125 C-285.6900604949368 222.57949412434107 -276.49627182026836 189.8232615786428 -261 160 C-260.5902392578125 159.20658203125004 -260.18047851562505 158.41316406249996 -259.75830078125 157.595703125 C-248.13945951821438 135.1258437587345 -248.13945951821438 135.1258437587345 -245 131 C-244.34000000000003 131 -243.68000000000006 131 -243 131 C-242.91750000000002 130.46375 -242.83500000000004 129.9275 -242.75 129.375 C-241.72418729057335 126.12659308681566 -240.0343610597065 123.71248141294188 -238 121 C-237.34000000000003 121 -236.68000000000006 121 -236 121 C-235.87625000000003 120.64937499999996 -235.87625000000003 120.64937499999996 -235.25 118.875 C-233.82819761867245 115.60485452294654 -232.12753711780385 112.85887800204887 -230 110 C-229.34000000000003 110 -228.68000000000006 110 -228 110 C-227.71125000000006 109.23687500000005 -227.4225 108.47375 -227.125 107.6875 C-226 105 -226 105 -224 102 C-223.34000000000003 102 -222.68000000000006 102 -222 102 C-222 101.34000000000003 -222 100.68000000000006 -222 100 C-221.34000000000003 100 -220.68000000000006 100 -220 100 C-219.73187499999995 99.42765625000004 -219.46375 98.85531249999997 -219.1875 98.265625 C-217.9586736406668 95.92115365653535 -216.57477823856993 93.87595062206935 -215 91.75 C-214.484375 91.04359375000001 -213.96875 90.33718750000003 -213.4375 89.609375 C-212.963125 89.07828125000003 -212.48874999999998 88.54718750000006 -212 88 C-211.34000000000003 88 -210.68000000000006 88 -210 88 C-210 87.34000000000003 -210 86.68000000000006 -210 86 C-209.34000000000003 86 -208.68000000000006 86 -208 86 C-207.83500000000004 85.505 -207.83500000000004 85.505 -207 83 C-206.34000000000003 83 -205.68000000000006 83 -205 83 C-204.89042968750005 82.0654296875 -204.78085937499998 81.130859375 -204.66796875 80.16796875 C-203.63622280394952 71.56564824927352 -202.42174502584237 63.01503030364415 -200.965576171875 54.473388671875 C-200.26846643632211 50.26159062330919 -199.84929314901672 46.288294941614595 -200 42 C-200.34031249999998 42.461484375000055 -200.68062499999996 42.922968749999995 -201.03125 43.3984375 C-202.67412498203544 45.6093277683774 -204.33438868781354 47.8061821406086 -206 50 C-206.33064453124996 50.437636718750014 -206.33064453124996 50.437636718750014 -208.00390625 52.65234375 C-208.34357421875006 53.091269531249964 -208.34357421875006 53.091269531249964 -210.0625 55.3125 C-210.69285156249998 56.13363281249997 -211.32320312499996 56.95476562500005 -211.97265625 57.80078125 C-215.68633493057519 61.82929974164506 -219.44989211116012 63.597637214274755 -224.94921875 64.04296875 C-228.75792618365608 63.963167260913906 -230.8202097245619 63.099861502647855 -234 61 C-237.82167268838123 55.60526506867393 -239.71525366228298 50.580333693003126 -239 44 C-239.65999999999997 44 -240.31999999999994 44 -241 44 C-241 44.65999999999997 -241 45.32000000000005 -241 46 C-246.41176470588232 50 -246.41176470588232 50 -249 50 C-249 50.65999999999997 -249 51.32000000000005 -249 52 C-257.0150415972075 56.225233196113436 -263.5267231957239 58.93246723818834 -272.6875 59.1875 C-276.11328125 59.40625 -276.11328125 59.40625 -279 60 C-281.375 63.1875 -281.375 63.1875 -282.1171875 65.0859375 C-284.2128039945177 69.62953078457383 -289.41325512842695 73.22263636226546 -294 75 C-297.09375 75.265625 -297.09375 75.265625 -300.5 75.25 C-301.62406250000004 75.25515625000003 -302.74812499999996 75.26031250000005 -303.90625 75.265625 C-306.8504174269715 75.01284294818936 -308.51695504554425 74.5336454130462 -311 73 C-311 72.34000000000003 -311 71.68000000000006 -311 71 C-312.32000000000005 70.34000000000003 -313.64 69.68000000000006 -315 69 C-315 68.34000000000003 -315 67.68000000000006 -315 67 C-315.65999999999997 67 -316.32000000000005 67 -317 67 C-321.20004522666284 54.822510380556196 -322.4066279064059 43.9718189356131 -317 32 C-316.34000000000003 32 -315.67999999999995 32 -315 32 C-314.85562500000003 31.381250000000023 -314.71124999999995 30.76249999999999 -314.5625 30.125 C-314 28 -314 28 -313 26 C-312.34000000000003 26 -311.67999999999995 26 -311 26 C-311 25.339999999999975 -311 24.680000000000007 -311 24 C-308.0381272779438 21.827960003825467 -305.4931400912807 20.164380030426912 -302 19 C-300.8125 16.9375 -300.8125 16.9375 -300 15 C-299.34000000000003 15 -298.67999999999995 15 -298 15 C-298 14.339999999999975 -298 13.680000000000007 -298 13 C-294.18537127056743 11.0537608523303 -291.7469172542311 10.026207622955496 -287.4375 9.875 C-282.8232308463073 11.385124450299429 -280.4926795202663 13.886692927857837 -278 18 C-275.2339727511944 23.87664375082943 -275.7777977267575 30.026943847472864 -275.875 36.375 C-275.8840234375 37.4926171875 -275.893046875 38.610234375000005 -275.90234375 39.76171875 C-275.92581653520756 42.50803461929149 -275.9586527233929 45.25390472133927 -276 48 C-264.43422196069434 47.32687299539327 -264.43422196069434 47.32687299539327 -259.4375 44.4375 C-255.12181303116142 42 -255.12181303116142 42 -253 42 C-253 41.34000000000003 -253 40.67999999999995 -253 40 C-251.1898337707396 38.51603123844893 -249.27085472943327 37.241673235534165 -247.3359375 35.92578125 C-241.02299369700063 30.721297479299892 -238.0236977346051 25.56930793106727 -235.8125 17.75 C-235.3482405275371 16.15898406682129 -234.87587942815082 14.570304534623517 -234.39453125 12.984375 C-234.19706298828123 12.290537109375009 -233.99959472656246 11.596699218750018 -233.796142578125 10.8818359375 C-232.85834966445657 8.6651822182248 -231.8956059064376 7.4781745038177405 -230 6 C-226.9375 6 -226.9375 6 -224 7 C-222.671875 9.1328125 -222.671875 9.1328125 -222 12 C-222.86328125 15.3046875 -222.86328125 15.3046875 -224.3125 18.875 C-227.91586400701885 27.858729442156516 -230.01266527634618 38.82695456744068 -227.328125 48.39453125 C-226.5 50.312499999999886 -226.5 50.312499999999886 -225 53 C-219.41405242796554 48.55824779577415 -215.2848098883319 43.84192955962146 -211.125 38.0625 C-210.5200268554688 37.23363281249999 -209.9150537109375 36.40476562499998 -209.291748046875 35.55078125 C-205.1206821587541 29.760686859464215 -201.2758254893056 23.838334872574876 -197.75244140625 17.633056640625 C-194.43194692499617 11.799510325198298 -194.43194692499617 11.799510325198298 -192 10 C-186.56521739130437 10.434782608695627 -186.56521739130437 10.434782608695627 -185 12 C-184.18001364941506 19.411415091825745 -185.47768083670337 26.652305297262615 -186.715087890625 33.930419921875 C-188.60295193051672 45.2256064656342 -189.7567922340188 56.61925238022957 -191 68 C-190.65066406250003 67.67515624999999 -190.65066406250003 67.67515624999999 -188.8828125 66.03125 C-187.97273437499996 65.19593750000001 -187.06265625000003 64.36062500000003 -186.125 63.5 C-185.220078125 62.664687500000014 -184.31515624999997 61.82937500000003 -183.3828125 60.96875 C-181 59 -181 59 -179 59 C-179 58.34000000000003 -179 57.67999999999995 -179 57 C-177.35000000000002 56.34000000000003 -175.70000000000005 55.67999999999995 -174 55 C-174 54.34000000000003 -174 53.67999999999995 -174 53 C-170.53846153846155 50 -170.53846153846155 50 -168 50 C-168 49.34000000000003 -168 48.67999999999995 -168 48 C-162.58823529411757 44 -162.58823529411757 44 -160 44 C-160 43.34000000000003 -160 42.67999999999995 -160 42 C-158.2134547646374 40.72648870483147 -156.36175500715694 39.54412787064746 -154.48828125 38.40234375 C-153.3256617360264 37.675946062521405 -152.1635696857952 36.94870360599742 -151.001953125 36.220703125 C-149.16862512912041 35.081791691464446 -147.33225725870432 33.94945257385467 -145.485595703125 32.832275390625 C-137.86020020229626 28.199659285168252 -132.76454145506375 24.331362236616428 -129 16 C-126.83203125 13.152343749999943 -126.83203125 13.152343749999943 -124.8125 10.9375 C-124.13832031250001 10.183398437499989 -123.46414062500003 9.429296874999977 -122.76953125 8.65234375 C-121 7 -121 7 -119 7 C-119 6.339999999999975 -119 5.680000000000007 -119 5 C-112.04781098190438 1.8925821813057837 -105.40789780396494 0.7986866990801786 -98 3 C-93.94628568644964 5.461557787298034 -90.76367078548765 8.13086090031726 -88 12 C-87.4568078307509 14.963355299566729 -87.8962101972229 16.117882181637526 -89 19 C-91.5625 19.875 -91.5625 19.875 -95 20 C-96.96480227820348 18.638426491420432 -98.60609540425799 17.08407564895691 -100.34765625 15.44921875 C-102.60050942533292 13.473312064306128 -103.99583562748046 12.924895890687026 -107 13 C-115.35277758759116 15.429898934572009 -118.88050118843785 20.826589193186578 -123.06640625 28.191650390625 C-128.75678501395305 38.584203303850245 -132.46140528843443 49.07012713882159 -133 61 C-132.34000000000003 61 -131.68000000000006 61 -131 61 C-130.72309326171876 60.40848144531253 -130.44618652343752 59.81696289062495 -130.160888671875 59.20751953125 C-129.06773532819216 57.12880396162211 -127.91391629209704 55.487301596482894 -126.42578125 53.6796875 C-125.92610839843746 53.066174316406205 -125.42643554687504 52.45266113281252 -124.91162109375 51.820556640625 C-124.3839111328125 51.178522949218745 -123.856201171875 50.53648925781249 -123.3125 49.875 C-119.04029466996644 44.62846572153262 -115.01069274229928 39.32979113560714 -111.3046875 33.66015625 C-111.08941406250005 33.38623046875 -111.08941406250005 33.38623046875 -110 32 C-109.34000000000003 32 -108.68000000000006 32 -108 32 C-107.73187499999995 31.236874999999998 -107.46375 30.473749999999995 -107.1875 29.6875 C-105.39145907473312 25.622775800711736 -105.39145907473312 25.622775800711736 -103 24 C-99.9375 23.625 -99.9375 23.625 -97 24 C-94.97546393448818 27.03680409826768 -94.7132357519422 27.96291185388509 -94.47265625 31.4296875 C-94.40449707031246 32.301335449218755 -94.33633789062503 33.17298339843751 -94.26611328125 34.071044921875 C-94.23251708984378 34.5336975097656 -94.23251708984378 34.5336975097656 -94.0625 36.875 C-93.08732631663474 48.4014744525731 -91.82087899913074 60.742227218315065 -86 71 C-83.25 73.125 -83.25 73.125 -81 74 C-80.38511718749999 73.57847656249999 -79.77023437499997 73.15695312499997 -79.13671875 72.72265625 C-78.32847656249999 72.1748046875 -77.52023437499997 71.626953125 -76.6875 71.0625 C-75.88699218750003 70.51722656250001 -75.08648437500005 69.97195312500003 -74.26171875 69.41015625 C-72 68 -72 68 -69 67 C-68.0625 65.31250000000011 -68.0625 65.31250000000011 -67 63 C-64.99999999999989 59.749999999999886 -64.99999999999989 59.749999999999886 -63 57 C-62.33999999999992 57 -61.680000000000064 57 -61 57 C-60.738320312500036 56.118281249999995 -60.47664062500007 55.23656249999999 -60.20703125 54.328125 C-59.02223275641609 51.061301969147166 -57.62489580612987 48.619579597549205 -55.6875 45.75 C-51.239979896166005 38.90766137871685 -47.48243244962282 32.41687243513792 -45.5625 24.4375 C-43.45872494805474 16.034285526975737 -38.2575876871681 8.408984076935042 -30.93359375 3.66015625 C-21.05319413586517 -2.1075897176421563 -10.893303833042296 -4.084988937390847 0 0 Z M-291 21 C-293.6567450192947 25.538606074628376 -294.65728028776175 28.741757697906166 -294 34 C-291.846003948815 38.0002783807721 -289.6515793961944 40.39172900271831 -286 43 C-285.94565883593873 40.45804110335723 -285.90616609855806 37.91726318237903 -285.875 35.375 C-285.85824218749997 34.66214843749998 -285.84148437500005 33.949296875000016 -285.82421875 33.21484375 C-285.7831539779951 28.738783601467446 -286.30913432962643 25.220507224475853 -288 21 C-288.99 21 -289.98 21 -291 21 Z M-305 33 C-309.4668257890945 40.34864887883282 -310.76838749363424 46.359010817201465 -310 55 C-308.97175442333673 58.8080543080564 -307.4322389685667 62.83896064942098 -304 65 C-300.04269405009904 65.42098999467032 -297.3973162884606 65.09065617751423 -294 63 C-294 62.34000000000003 -294 61.67999999999995 -294 61 C-293.34000000000003 61 -292.67999999999995 61 -292 61 C-292 60.34000000000003 -292 59.67999999999995 -292 59 C-291.34000000000003 59 -290.67999999999995 59 -290 59 C-289.66999999999996 57.35000000000002 -289.34000000000003 55.700000000000045 -289 54 C-293.75 50 -293.75 50 -296 50 C-296 49.34000000000003 -296 48.67999999999995 -296 48 C-296.65999999999997 48 -297.32000000000005 48 -298 48 C-300 43 -302 38 -304 33 C-304.33000000000004 33 -304.65999999999997 33 -305 33 Z M-210 102 C-211.9453125 104.1171875 -211.9453125 104.1171875 -214.125 106.875 C-214.84945312499997 107.77992187500001 -215.57390624999994 108.68484375000003 -216.3203125 109.6171875 C-218 112 -218 112 -218 114 C-218.65999999999997 114 -219.31999999999994 114 -220 114 C-221.5078125 115.8984375 -221.5078125 115.8984375 -223.125 118.375 C-223.663828125 119.18710937499998 -224.20265625000002 119.99921874999995 -224.7578125 120.8359375 C-226 123 -226 123 -226 125 C-226.65999999999997 125 -227.31999999999994 125 -228 125 C-229.65625 127.23046875 -229.65625 127.23046875 -231.5 130.1875 C-231.80421875000002 130.66896484375002 -231.80421875000002 130.66896484375002 -233.34375 133.10546875 C-234.82620403526175 135.69626695785132 -235.97690006877679 138.20182168810447 -237 141 C-237.65999999999997 141 -238.31999999999994 141 -239 141 C-251.19375061036658 163.8068298453153 -262.9678511938447 186.50293143772183 -269.6875 211.625 C-269.88996337890626 212.3761206054687 -270.0924267578125 213.12724121093743 -270.301025390625 213.901123046875 C-273.25039675496214 225.29658914776758 -274.3501529126969 236.26419073303168 -274.315673828125 247.9921875 C-274.31248468708793 250.26089337006294 -274.33617087904327 252.52832645197873 -274.361328125 254.796875 C-274.399782146127 263.59621583444414 -274.0306860132039 270.4539709801942 -269 278 C-263.7214349307641 277.34130726486455 -262.003935541642 275.33012246378075 -258.75 271.33984375 C-248.73953117863027 257.9553106607133 -242.92280299798836 241.68504020792034 -237.66162109375 225.95703125 C-237.06187715207398 224.18302850591328 -236.43296558312818 222.41895289627928 -235.80078125 220.65625 C-227.06067313593155 195.80066014736667 -221.66999848676426 169.69290809896813 -216 144 C-215.7729638671875 142.976806640625 -215.54592773437503 141.95361328125 -215.31201171875 140.8994140625 C-213.10314495449973 130.89720299102157 -211.22647582420325 120.87332626587079 -209.61328125 110.7578125 C-209.1339749616635 107.82091664407835 -208.61086553820587 104.91160209799091 -208 102 C-208.65999999999997 102 -209.31999999999994 102 -210 102 Z M-14 116 C-15.061075505128429 117.23743154476199 -16.07439789653381 118.51605397772164 -17.0625 119.8125 C-17.6103515625 120.52019531249994 -18.158203125 121.22789062499999 -18.72265625 121.95703125 C-20 124 -20 124 -20 127 C-20.660000000000082 127 -21.319999999999936 127 -22 127 C-26.21602133459396 132.4299222142139 -29.020774712426032 138.9414586918366 -31.8125 145.1875 C-31.963441162109348 145.51975585937498 -31.963441162109348 145.51975585937498 -32.727294921875 147.201171875 C-34.59408318107535 151.49675776934976 -35.5342972817557 155.33692473030624 -36 160 C-26.32410781313115 155.9063533055555 -21.311725064928055 147.48580219170367 -17.494140625 138.15966796875 C-12.86389166939432 126.48034145663814 -12.86389166939432 126.48034145663814 -12.9375 120.8125 C-12.946523437499991 119.91144531250006 -12.955546874999982 119.01039062500001 -12.96484375 118.08203125 C-12.976445312500005 117.39496093749995 -12.988046875000009 116.707890625 -13 116 C-13.329999999999927 116 -13.660000000000082 116 -14 116 Z " fill="#061E29" transform="translate(926,474)"/>
<path d="M0 0 C5.3479868772751615 4.038275805289459 7.508149403641596 8.529746734227558 8.6796875 14.9453125 C9.807586161967947 25.701614373889186 7.577970104139013 36.512218444405846 5.4072265625 47.00927734375 C5.002249720162808 48.98900226726198 4.619065178952951 50.97178133541081 4.2421875 52.95703125 C3.2032746171645385 58.35391027820327 2.1101857628862035 63.67346882362773 0.62109375 68.96484375 C-1.5584569916924238 76.82991596685997 -3.180241913909981 84.8202032997441 -4.872314453125 92.80078125 C-6.960497229251359 102.62310472983415 -9.321915755232112 112.32017742854998 -12 122 C-11.376416015624955 121.80051757812498 -10.752832031250023 121.60103515625002 -10.1103515625 121.3955078125 C-2.8399972525338626 119.09275251554698 4.524497667501805 117.48343301581349 12 116 C13.001601562500014 115.79117187500003 14.003203125000027 115.58234375 15.03515625 115.3671875 C23.013585998735948 113.84237320077995 30.894257829792878 113.53956814621017 39 114 C40 115 40 115 40.25 118.4375 C40.16750000000002 119.61312499999997 40.085000000000036 120.78875 40 122 C37.028601624362864 123.98093225042476 35.95602508710931 124.32296675420366 32.5625 124.7109375 C31.67659179687496 124.81921875 30.790683593750032 124.92750000000001 29.8779296875 125.0390625 C28.92821289062499 125.14992187500002 27.978496093749982 125.26078124999998 27 125.375 C17.192940632008003 126.6158272808267 7.592054486270399 128.2972598343962 -2.029296875 130.56201171875 C-3.7723384861748173 130.94940228496006 -5.534372222406773 131.24906278965608 -7.296875 131.53515625 C-9.966913120863069 132.05604518976372 -11.71037187443983 132.5500376795527 -14 134 C-14.91064453125 135.98461914062494 -14.91064453125 135.98461914062494 -15.5078125 138.53515625 C-15.746611328125027 139.52604248046873 -15.985410156250055 140.51692871093746 -16.2314453125 141.537841796875 C-16.485068359374964 142.68035400390625 -16.73869140625004 143.8228662109375 -17 145 C-17.29999456703638 146.3123613623548 -17.600473581765073 147.62461205240368 -17.9013671875 148.936767578125 C-18.73933708800257 152.62613791750323 -19.55303570370279 156.32049547996098 -20.360015869140625 160.01675415039063 C-21.23515570712391 164.02424635662203 -22.118882954699984 168.02983663008138 -23.00390625 172.03515625 C-23.176917572021466 172.81837753295895 -23.349928894042932 173.601598815918 -23.528182983398438 174.40855407714844 C-24.891637924886822 180.55909350033926 -26.32627062016536 186.69042768046893 -27.8125 192.8125 C-29.440663187340874 199.5294944568949 -30.883110746087596 206.2565570873678 -32.19921875 213.04296875 C-33.141828657384735 217.80003120088702 -34.22939463526734 222.52330125794776 -35.3125 227.25 C-35.522456054687495 228.1672485351562 -35.73241210937499 229.08449707031252 -35.94873046875 230.029541015625 C-36.165454101562545 230.97627685546877 -36.38217773437498 231.92301269531254 -36.60546875 232.8984375 C-43.70536010784656 263.9140202489011 -43.70536010784656 263.9140202489011 -46.35546875 278.65234375 C-47.151840630487186 282.78865103228804 -48.196734564996405 286.8353982006306 -49.2578125 290.91015625 C-50.09650390705917 294.4017610025462 -50.74141676599163 297.90295982376233 -51.375 301.4375 C-54.75535632088361 320.1264652636021 -59.033992037660596 338.143905030802 -68 355 C-68.65999999999997 355 -69.31999999999994 355 -70 355 C-70.18562499999996 355.6600000000001 -70.37125000000003 356.31999999999994 -70.5625 357 C-74.29176715350206 364.7828184073086 -80.24842009184385 369.49977108798373 -88 373 C-95.68045496935412 375.56015165645135 -107.17007447179463 375.4856689990588 -114.5625 372 C-119.49079931046919 369.00873659242825 -124.10943040644224 365.2570725262842 -128 361 C-128 360.3399999999999 -128 359.68000000000006 -128 359 C-128.66000000000003 359 -129.32 359 -130 359 C-130 358.3399999999999 -130 357.68000000000006 -130 357 C-130.66000000000003 357 -131.32 357 -132 357 C-132.66000000000003 355.02 -133.32 353.03999999999996 -134 351 C-134.66000000000003 351 -135.32 351 -136 351 C-153.81762353249292 317.2737840277813 -152.69973205052077 274.2154209134617 -142.125 238.3125 C-137.1435306935789 222.89814214616865 -129.97643075004902 208.4646461250735 -121 195 C-120.43796874999998 194.11570312499998 -119.87593750000002 193.23140624999996 -119.296875 192.3203125 C-118.76578124999997 191.49273437500005 -118.2346875 190.66515625 -117.6875 189.8125 C-117.21699218750001 189.07644531250003 -116.74648437500002 188.34039062500005 -116.26171875 187.58203125 C-115.84535156250001 187.05996093750002 -115.42898437500003 186.53789062500005 -115 186 C-114.34000000000003 186 -113.68 186 -113 186 C-113 185.34000000000003 -113 184.68 -113 184 C-112.34000000000003 184 -111.68 184 -111 184 C-110.7525 183.43667968750003 -110.505 182.873359375 -110.25 182.29296875 C-105.7568419327987 174.0508319204776 -97.32132288777973 166.72973095565368 -90 161 C-89.34000000000003 161 -88.68 161 -88 161 C-88 160.34000000000003 -88 159.68 -88 159 C-86.59814453124994 157.76660156249994 -86.59814453124994 157.76660156249994 -84.6328125 156.390625 C-83.91738281250002 155.886279296875 -83.20195312499999 155.38193359374998 -82.46484375 154.8623046875 C-81.6926953125 154.33024414062504 -80.92054687500001 153.79818359374997 -80.125 153.25 C-79.3399609375 152.70504882812497 -78.55492187499999 152.16009765625 -77.74609375 151.5986328125 C-67.57140645229299 144.58146211007318 -57.211616466010014 139.0434315874707 -45.98876953125 133.912109375 C-44.246845294237914 133.1132106579024 -42.51151707055931 132.2999619677297 -40.77734375 131.484375 C-39.86082031249998 131.05640625 -38.944296874999964 130.62843750000002 -38 130.1875 C-37.236875000000055 129.8304296875 -36.473749999999995 129.47335937499997 -35.6875 129.10546875 C-33 128 -33 128 -30.828125 127.73828125 C-27.995093920686486 127.2475928604457 -26.32563974074833 126.71827400488326 -24 125 C-21.768149517496795 120.0862365387975 -20.952422819245612 114.90048368565738 -20 109.625 C-19.686525813047183 108.05816288295034 -19.368407252730663 106.49224854785314 -19.0458984375 104.92724609375 C-18.54089809720051 102.47474628408696 -18.038837981556412 100.02204140186188 -17.55096435546875 97.56607055664063 C-15.905200267909208 89.30934394524184 -13.89112840319524 81.15762850424971 -11.841766357421875 72.99346923828125 C0.5261648682737814 23.492404701834857 0.5261648682737814 23.492404701834857 -4.0234375 12.53515625 C-4.345703125 12.028554687499991 -4.66796875 11.521953124999982 -5 11 C-10.488792985642021 12.866189615118287 -13.241804473322418 14.947374138670398 -16.73828125 19.57421875 C-17.154648437499986 20.04472656249999 -17.571015624999973 20.515234374999977 -18 21 C-18.659999999999968 21 -19.319999999999936 21 -20 21 C-20.273281249999968 21.74507812500002 -20.546562499999936 22.490156249999984 -20.828125 23.2578125 C-21.920576510408978 25.814149034356944 -23.096868317850294 27.661936619057656 -24.75 29.875 C-31.496361344577167 39.83707166607098 -36.392563700429264 52.17013858520511 -34.66796875 64.34375 C-34.1875 66.4375 -34.1875 66.4375 -33 70 C-32.87625000000003 70.47437500000001 -32.87625000000003 70.47437500000001 -32.25 72.875 C-30.454927843915016 75.9266226653445 -28.317206135461447 76.05222681843958 -25 77 C-23.0625 78.3125 -23.0625 78.3125 -22 80 C-22.24453123827459 83.3419269230867 -22.60543557444055 84.6054355744406 -25 87 C-28.951584713379702 87.34361606203299 -31.605355542710186 87.08901197371677 -35 85 C-35 84.34000000000003 -35 83.68 -35 83 C-35.577499999999986 82.773125 -36.15499999999997 82.54624999999999 -36.75 82.3125 C-41.156438322383224 79.74207764527648 -43.518471300362535 75.78647733729008 -45 71 C-48.51351168283509 52.72973924925776 -42.68316054878039 35.58911436549147 -32.51953125 20.49609375 C-28.852165029803132 15.266728009703513 -24.688402749043235 10.34275490932174 -20 6 C-19.340000000000032 6 -18.680000000000064 6 -18 6 C-18 5.339999999999975 -18 4.680000000000007 -18 4 C-12.217895836680782 -0.11171851613806894 -7.070749037624637 -1.2895647394740308 0 0 Z M-36.125 141 C-36.83132568359372 141.31106689453122 -37.537651367187436 141.6221337890625 -38.265380859375 141.942626953125 C-43.423758292190314 144.24024734046566 -48.51074662076314 146.66461534626126 -53.5625 149.1875 C-54.20396972656249 149.50783203125002 -54.84543945312498 149.82816406250004 -55.50634765625 150.158203125 C-59.75256618688638 152.30622501533497 -63.88446906161903 154.61119117991012 -68 157 C-68 157.65999999999997 -68 158.32 -68 159 C-68.71156250000001 159.25136718750002 -69.42312500000003 159.502734375 -70.15625 159.76171875 C-77.29910300119104 162.87199952112303 -83.7413156017659 168.3149357856929 -89 174 C-91.13970092050408 176.07914334728224 -93.28075885862972 178.15681494096737 -95.42578125 180.23046875 C-97 182 -97 182 -97 184 C-97.65999999999997 184 -98.32 184 -99 184 C-99 184.65999999999997 -99 185.32 -99 186 C-99.65999999999997 186 -100.32 186 -101 186 C-102.5078125 187.6796875 -102.5078125 187.6796875 -104.125 189.875 C-104.66382812500001 190.59429687500005 -105.20265625000002 191.31359375 -105.7578125 192.0546875 C-107 194 -107 194 -107 196 C-107.65999999999997 196 -108.32 196 -109 196 C-110.35693359375 197.908447265625 -110.35693359375 197.908447265625 -111.8984375 200.56640625 C-112.17945312500001 201.04690429687503 -112.17945312500001 201.04690429687503 -113.6015625 203.478515625 C-114.18679687500003 204.49623046875 -114.77203125 205.51394531250003 -115.375 206.5625 C-115.66375 207.05782226562496 -115.66375 207.05782226562496 -117.125 209.564453125 C-118.2558271008192 211.5072553929599 -119.3806206201732 213.45358349872242 -120.4990234375 215.403564453125 C-121.36873255427685 216.90801410454355 -122.2509156243787 218.40566094762812 -123.1650390625 219.883544921875 C-126.30612923301766 225.01506686466837 -128.12844129896536 230.50515531003498 -130 236.1875 C-130.34812744140623 237.24324218750007 -130.69625488281253 238.29898437500003 -131.054931640625 239.38671875 C-135.8698859820389 254.39413438870338 -138.63085968627058 269.2444202458224 -139 285 C-139.02835937499998 286.11761718749995 -139.05671875000002 287.235234375 -139.0859375 288.38671875 C-139.12465508164598 291.59640626844964 -139.08650807087395 294.7913370075853 -139 298 C-138.97164062500002 299.0725 -138.94328124999998 300.145 -138.9140625 301.25 C-137.9889923607363 320.28001429342476 -133.74034615381794 339.466231127043 -120.4453125 353.8125 C-119 355 -119 355 -117 355 C-117 355.65999999999997 -117 356.31999999999994 -117 357 C-114.8828125 358.47265625 -114.8828125 358.47265625 -112.125 360.0625 C-111.6725390625 360.32611328124995 -111.6725390625 360.32611328124995 -109.3828125 361.66015625 C-103.9882234566719 364.6935071382976 -99.13879950924957 364.78528308605405 -93 364 C-82.69873238407172 359.63637680414536 -76.41037680227214 349.8483021265397 -72 340 C-68.41677924857026 330.62713256327925 -66.28439735921711 320.96890102769135 -64.1875 311.1875 C-63.665631384996345 308.78800623461507 -63.14158100691145 306.3889947809919 -62.61753845214844 303.98997497558594 C-62.262953578937754 302.36560598739607 -61.909164036700076 300.74106318300153 -61.55616760253906 299.11634826660156 C-60.432292464718785 293.9486748380277 -59.28110812822388 288.78805444185014 -58.1015625 283.6328125 C-57.951089630126944 282.9748971557617 -57.80061676025389 282.3169818115234 -57.64558410644531 281.6391296386719 C-57.497075042724646 280.9900967407227 -57.348565979003865 280.34106384277345 -57.195556640625 279.67236328125 C-54.5105268158037 267.93602887969473 -51.95186306817459 256.1893883577575 -49.684814453125 244.364501953125 C-48.77426648750725 239.6565318751775 -47.77256643031001 235.00403001951565 -46.578125 230.359375 C-44.412249480852665 221.8749900053174 -42.76778158452544 213.28124678363667 -41.05224609375 204.697021484375 C-39.52318459109972 197.06424726212913 -37.93831573735213 189.4976638679725 -35.80810546875 182.005126953125 C-34.12358377052658 175.74084369529044 -32.7623387804349 169.39538051329907 -31.355712890625 163.06396484375 C-30.808651531968053 160.60772081094888 -30.25310168857243 158.15349006451777 -29.697265625 155.69921875 C-29.345837009748948 154.12511536939758 -28.99490741141676 152.55090047831095 -28.64453125 150.9765625 C-28.47895217895507 150.2494204711914 -28.313373107910138 149.5222784423828 -28.142776489257813 148.77310180664063 C-27.34036138843271 145.12122033221442 -26.8078343900836 141.74198021400116 -27 138 C-30.30116853044626 138 -33.147995933061566 139.68214866507742 -36.125 141 Z " fill="#061E29" transform="translate(586,326)"/>
</svg>
