<?xml version="1.0" encoding="UTF-8"?>
<!-- Generator: visioncortex VTracer 0.6.12 -->
<svg version="1.1" xmlns="http://www.w3.org/2000/svg" width="578" height="428">
<path d="M0 0 C2.0234909969302066 -0.00435784134299394 4.044766041575599 -0.040738472347148336 6.06787109375 -0.07861328125 C18.99421711325067 -0.11659470931905186 29.588781797303568 3.4067729937664284 41.03466796875 9.07763671875 C46.26048695175831 11.518818083916662 51.22435102130561 12.635256046797792 56.804931640625 10.65625 C58.905628603943626 9.692998654441702 60.93788495494988 8.643403450676383 62.97802734375 7.55810546875 C81.46527124999142 -1.5411004534254946 103.64307160229959 -2.8077516188966394 123.49365234375 3.09716796875 C129.24387462450323 5.318225389988809 134.64680307303053 7.894085293100297 138.72802734375 12.60888671875 C140.79052734375 14.37060546875 140.79052734375 14.37060546875 143.24365234375 14.28857421875 C144.16662109375 14.04751953125 145.08958984375 13.80646484375 146.04052734375 13.55810546875 C159.46164107945083 10.82478108599142 173.37062343359378 12.808483421227617 185.22802734375 19.80810546875 C188.46661134344163 22.00068718282695 191.16766505526175 24.456314037096387 193.79052734375 27.37060546875 C194.47115234375002 28.09248046875 195.15177734374998 28.81435546875 195.85302734375 29.55810546875 C201.7880875754591 38.173515482521296 202.32439559546924 46.07881194949552 201.79052734375 56.37060546875 C202.34812744140623 56.349658203125 202.90572753906253 56.3287109375 203.480224609375 56.30712890625 C221.7757143593824 55.71325373819634 238.01211666147117 57.016854624286154 252.04052734375 70.12060546875 C261.05254539894474 79.67991206980676 264.3059097898739 89.42020011909045 264.11083984375 102.37841796875 C263.4978647880117 112.6032539825362 260.89569628745653 123.26023039469165 256.32958984375 132.42529296875 C255.79052734375 134.37060546874997 255.79052734375 134.37060546874997 256.43115234375 136.42919921875 C258.02051854550075 138.69906991492846 259.6530261658381 139.9617413972268 261.91552734375 141.55810546875 C273.13338054382245 150.079359341882 280.6315639816321 161.54828690774596 283.79052734375 175.37060546875 C285.4895564126891 190.82181752456293 282.4542790129958 202.93047287461346 273.34130859375 215.64013671875 C272.82955078124996 216.21119140625 272.31779296875004 216.78224609375 271.79052734375 217.37060546875 C271.13052734375003 217.37060546875 270.47052734374995 217.37060546875 269.79052734375 217.37060546875 C269.46052734374996 218.36060546875 269.13052734375003 219.35060546875 268.79052734375 220.37060546875 C268.29552734375 220.70060546874998 268.29552734375 220.70060546874998 265.79052734375 222.37060546875 C267.1252881894202 225.8089986149695 268.62130335988536 229.1145447170295 270.22802734375 232.43310546875 C277.6535182579016 248.88781758324583 277.4961528544346 265.58746124241844 271.68896484375 282.59716796875 C269.13897412981044 289.0955314010476 265.92782300640965 294.7614987440238 261.79052734375 300.37060546875 C261.48115234374995 300.81404296874996 261.48115234374995 300.81404296874996 259.91552734375 303.05810546875 C256.01223145796007 307.30580981505074 251.15793827641403 311.15864510392163 245.79052734375 313.37060546875 C244.47052734374995 313.37060546875 243.15052734375 313.37060546875 241.79052734375 313.37060546875 C241.48115234374995 314.58748046875 241.17177734375002 315.80435546875 240.85302734375 317.05810546875 C239.39642976161417 321.56159557776886 237.13037374894964 324.7901141408753 234.29052734375 328.55810546875 C230.10436754084242 334.1828167169161 228.62732056936272 339.1063806122043 227.44287109375 346.07373046875 C225.67551754477893 355.0057448120529 221.18547582867564 361.19414152930204 213.79052734375 366.37060546875 C210.0713524614107 368.40729647574534 207.01300847726873 368.8984156104398 202.79052734375 368.37060546875 C200.09062072733866 366.57066772447575 198.2486408441937 365.2868324696374 196.79052734375 362.37060546875 C195.84229426382188 353.5567012667954 197.33117564068175 345.59174902059567 202.26318359375 338.14794921875 C205.378283091132 334.32587678579193 208.74207103671426 331.63459104194493 212.85302734375 328.93310546875 C217.95362804657498 325.5690451578792 220.8389630091275 321.66182445886585 223.79052734375 316.37060546875 C222.32868676290514 316.59920605340886 220.87097315497317 316.85430938972496 219.41552734375 317.12060546875 C218.60341796875002 317.25982421875 217.79130859375005 317.39904296875 216.95458984375 317.54248046875 C214.79052734375 318.37060546875 214.79052734375 318.37060546875 213.93896484375 320.19873046875 C212.1438771621588 323.59352213869795 209.26312261462112 325.04487117302256 205.79052734375 326.37060546875 C202.05306434892066 326.9742241767931 198.32637708249194 326.87810343179706 194.55029296875 326.85888671875 C187.5489465604049 326.99042354281795 182.60254085206645 329.0357821315418 177.21240234375 333.51123046875 C171.41969298294174 337.9585363651125 161.59472824125794 338.9937749348871 154.34521484375 338.73388671875 C146.3182305252863 337.5924348202529 138.2786565749957 335.4479850302361 130.79052734375 332.37060546875 C130.76547119140628 333.0243212890625 130.76547119140628 333.0243212890625 130.638671875 336.33251953125 C128.76462963128694 384.85911070014305 128.76462963128694 384.85911070014305 126.79052734375 408.37060546875 C127.91330078124997 408.33580078125 129.03607421875 408.30099609375 130.19287109375 408.26513671875 C145.926596421101 407.9226027856436 145.926596421101 407.9226027856436 152.79052734375 411.37060546875 C153.63615234374998 411.78310546875 154.48177734375003 412.19560546875 155.35302734375 412.62060546875 C156.79052734375 414.37060546875 156.79052734375 414.37060546875 157.35302734375 417.80810546875 C156.79052734375 421.37060546875 156.79052734375 421.37060546875 154.85302734375 423.68310546875 C144.39895794531702 429.44351105564164 130.31832837635272 428.30355804819527 118.90380859375 426.29638671875 C115.72803304900441 424.90515048195755 114.00755537582734 423.02051686857305 111.79052734375 420.37060546875 C111.30314636230469 417.29304504394537 111.30314636230469 417.29304504394537 111.498291015625 413.811279296875 C111.55873092651365 412.50254348754885 111.61917083740235 411.19380767822264 111.68144226074219 409.8454132080078 C111.77332970188047 408.42279100969876 111.86569300412287 407.00019947923414 111.95849609375 405.57763671875 C112.0352556970559 404.1067035271423 112.10962437975195 402.63564380341535 112.18171691894531 401.1644744873047 C112.37756515396666 397.2919751427491 112.60423002386398 393.4218918342821 112.837890625 389.551513671875 C113.06918227943135 385.6425235331315 113.27424333084417 381.73218250349765 113.47998046875 377.82177734375 C113.71212454164066 373.4107652992891 113.94619447345087 369.00007662763716 114.20487976074219 364.5905303955078 C114.61530203068742 357.51022014152954 114.91673451676553 350.46421228716525 114.79052734375 343.37060546875 C114.49919921875 343.56396484375 114.49919921875 343.56396484375 113.02490234375 344.54248046875 C98.76078731707275 353.60333341022425 82.46761416809642 356.81326495616605 65.83642578125 353.343994140625 C55.35680351648011 350.8427647497598 45.44605786804516 346.2716830931726 36.57958984375 340.15576171875 C32.4378028442257 337.5047860061693 29.562376489349617 337.5428357190031 24.79052734375 338.37060546875 C21.236461215754844 339.5090829163702 17.76469696218004 340.8027332849455 14.27490234375 342.12451171875 C7.357395407272691 344.5983735043288 0.781400827908783 345.46915692276775 -6.54541015625 345.41357421875 C-7.610659179687502 345.40737060546877 -8.675908203125005 345.4011669921875 -9.7734375 345.394775390625 C-10.577329101562498 345.38679931640627 -11.381220703124995 345.3788232421875 -12.20947265625 345.37060546875 C-11.872879524971154 349.5124847719636 -11.517831576700587 353.65229682959676 -11.1474609375 357.791259765625 C-11.024528517268266 359.1918910937976 -10.906173728880503 360.5929336854373 -10.79296875 361.994384765625 C-9.543311543684695 377.3828626646316 -5.564488791948065 391.22208082946713 0.14208984375 405.57958984375 C2.2516669143485046 411.1112815984208 3.4159916933420504 415.43856990051376 2.79052734375 421.37060546875 C-0.0909055605619642 425.15763157156 -2.7503301534778757 426.90114737643864 -7.20947265625 428.37060546875 C-11.595760274935742 428.8360481813103 -15.988395845726643 428.7868079962354 -20.39697265625 428.80810546875 C-21.578398437500027 428.8409765625 -22.759824218749998 428.87384765625 -23.97705078125 428.90771484375 C-31.568166099891698 428.95397648835115 -38.04703746303613 428.1527406767176 -44.20947265625 423.37060546875 C-45.67001192834209 419.4758340765044 -45.608292083360055 417.5955508520166 -44.33447265625 413.68310546875 C-40.34248166965841 409.3388799833415 -34.05252144347776 406.9406590089673 -28.20947265625 406.37060546875 C-26.48949894259499 406.3533798932502 -24.769367411300323 406.3494274388709 -23.04931640625 406.35498046875 C-22.144313964843775 406.357236328125 -21.239311523437493 406.3594921875 -20.306884765625 406.36181640625 C-19.614738769531243 406.364716796875 -18.922592773437486 406.3676171875 -18.20947265625 406.37060546875 C-18.375520019531223 405.77336669921874 -18.541567382812502 405.1761279296875 -18.712646484375 404.560791015625 C-24.531191740450993 383.45216637695046 -27.81727980117512 364.30465100125383 -27.20947265625 342.37060546875 C-28.385097656250025 342.26876953125 -29.560722656249993 342.16693359375 -30.77197265625 342.06201171875 C-40.00311207162014 340.8938987865674 -49.35188157751497 335.4727411452858 -55.53369140625 328.58935546875 C-63.4810668058216 318.06695633831487 -66.99439628120763 306.51080837544805 -66.20947265625 293.37060546875 C-66.62648437500002 293.4730859375 -66.62648437500002 293.4730859375 -68.73681640625 293.99169921875 C-75.21767956904665 295.54324606986626 -81.54837387254273 296.98360501124586 -88.20947265625 297.37060546875 C-88.61681640625 297.39703125 -88.61681640625 297.39703125 -90.67822265625 297.53076171875 C-107.97428551116408 298.1157756094309 -124.18850227101396 292.6757922550406 -136.83447265625 280.93310546875 C-137.61822265625 280.08748046875 -138.40197265625 279.24185546875 -139.20947265625 278.37060546875 C-139.43312500000002 278.14373046875 -139.43312500000002 278.14373046875 -140.56494140625 276.99560546875 C-152.69039145434024 263.9924418783047 -157.31280097833704 248.2536040941535 -157.852294921875 230.840576171875 C-158.15556214840572 221.9697986069747 -159.81496201271105 213.6773179176924 -162.07275390625 205.08544921875 C-166.34023852562942 188.44023669861133 -164.45827627300775 174.0616188109859 -156.70947265625 158.86669921875 C-155.36389620653068 156.62757590788894 -154.07599357669469 155.1544939526125 -152.20947265625 153.37060546875 C-152.95210861206056 153.3602980041504 -153.69474456787108 153.3499905395508 -154.4598846435547 153.33937072753906 C-161.56129617415766 153.24017414994344 -168.66264815754306 153.13752092917554 -175.7639570236206 153.03126621246338 C-179.41219501043219 152.9767931255963 -183.0604411614548 152.92352076903268 -186.708740234375 152.873291015625 C-203.2246184900389 152.6450132451357 -219.71596537792482 152.324562493222 -236.20947265625 151.37060546875 C-236.16693359375 152.62228515625 -236.12439453125 153.87396484375 -236.08056640625 155.16357421875 C-235.95867890665934 158.7500215551905 -236.22906849969058 159.40207758094246 -238.27197265625 162.68310546875 C-244.5108977433261 168.39105820798983 -249.72526358921806 168.86848201987036 -257.98291015625 168.65966796875 C-264.63597282564916 168.06363087730261 -270.46015935662473 166.26833480898853 -275.20947265625 161.37060546875 C-276.7566825231548 157.91913730411622 -276.28112105036706 154.09632196283658 -276.20947265625 150.37060546875 C-277.19947265625 150.70060546875 -278.18947265625 151.03060546875 -279.20947265625 151.37060546875 C-284.8456865280104 151.80416038196233 -288.26839947516083 150.84114205929458 -293.20947265625 148.37060546875 C-295.0786991972631 146.5013789277369 -294.50177494234515 143.87309377690312 -294.63525390625 141.37841796875 C-294.20947265625 139.37060546875 -294.20947265625 139.37060546875 -292.70989990234375 137.758544921875 C-289.125185657983 135.76873844552176 -285.76178178337443 136.04006700953846 -281.77685546875 136.15576171875 C-280.90568714141847 136.16857681274413 -280.03451881408694 136.18139190673827 -279.1369514465332 136.19459533691406 C-277.2028482724243 136.2245840715823 -275.2688428210512 136.26142163081798 -273.33497619628906 136.30401611328125 C-270.0980024959732 136.37298035843793 -266.86134689525005 136.41911695494142 -263.6239013671875 136.4599609375 C-256.1260509327958 136.55729874630273 -248.62876596149266 136.6822967565673 -241.13134765625 136.80810546875 C-238.3798270319792 136.8532699768749 -235.62829846531045 136.8979418283283 -232.87677001953125 136.942626953125 C-226.43170814964282 137.04757208879923 -219.98667455278934 137.15415741876325 -213.541650056839 137.2613706588745 C-206.18947314971814 137.38359163725062 -198.837265703757 137.5039253187753 -191.48505544662476 137.62412071228027 C-176.39316025958698 137.87088725406605 -161.30130392791645 138.11995809079616 -146.20947265625 138.37060546875 C-146.370283203125 137.6184375 -146.53109375 136.86626953125 -146.69677734375 136.09130859375 C-149.51821138519693 121.118898613805 -146.39973255577092 106.07600864621196 -138.20947265625 93.37060546875 C-129.31504574022264 80.52309992337715 -112.89944923001431 74.56407863695964 -98.20947265625 71.37060546875 C-93.87672287011483 70.83348772666713 -89.572163190499 70.51554535360877 -85.20947265625 70.37060546875 C-85.18369140625 69.70416015625 -85.15791015625001 69.03771484375 -85.13134765625 68.35107421875 C-84.26902262130588 54.33829240090823 -77.97874189402458 39.64010837231425 -68.20947265625 29.37060546875 C-67.54947265625 29.37060546875 -66.88947265625 29.37060546875 -66.20947265625 29.37060546875 C-65.96455078125001 28.78666015625 -65.71962890625 28.20271484375 -65.46728515625 27.60107421875 C-57.77719262953056 13.964295235033207 -34.35316205736012 6.062385004353426 -20.2724609375 1.78173828125 C-13.590272084205708 0.023844754076217445 -6.87769307064093 -0.001651306859697721 0 0 Z " fill="#F7CBC5" transform="translate(294.20947265625,-0.37060546875)"/>
<path d="M0 0 C1.9799999999999898 0 3.960000000000008 0 6 0 C7.130530973451329 4.522123893805315 7.130530973451329 4.522123893805315 6.5390625 6.6875 C4.055803545963329 17.340321020215356 5.6900325343411 29.62857875484599 10.82421875 39.1875 C15.046330895144337 45.696005100820486 22.118586532119963 48.12254063175834 29 51 C29 53.639999999999986 29 56.28 29 59 C40.275143698487284 61.850600664177364 50.83526701178977 61.30420983812462 62.25 59.6875 C63.150087890625 59.564152832031255 64.05017578125 59.44080566406251 64.9775390625 59.313720703125 C69.32218478563806 58.6819777252629 73.49412428470026 57.92109467302646 77.70703125 56.67578125 C82.02062168553704 55.463980982111536 85.48677594103017 54.67201749417927 90 55 C94.6084369183985 57.722534416774295 97.69739251369975 62.15635607233736 100.80419921875 66.41357421875 C105.13721137137776 72.16202521257912 111.54294154542299 76.02791199443095 118 79 C118.65999999999997 79 119.32 79 120 79 C119.65066406250003 78.32453125 119.301328125 77.64906250000001 118.94140625 76.953125 C118.48636718749998 76.06109375 118.03132812500002 75.1690625 117.5625 74.25 C117.1100390625 73.36828125 116.65757812499999 72.48656249999999 116.19140625 71.578125 C110.78287180207457 59.874411112685976 113.0387966192335 43.523955406583326 117.13330078125 31.7490234375 C117.9860744247934 29.44166336943107 118.89958634598315 27.200827308033638 120 25 C125.875 25.875 125.875 25.875 127 27 C126.94921875 28.785156249999915 126.94921875 28.785156249999915 126.6875 31.0625 C126.60886718749998 31.795976562500016 126.53023437499996 32.529453125 126.44921875 33.28515625 C126 36.000000000000114 126 36.000000000000114 124.98046875 39.62109375 C123.6738513782841 44.729650446104074 123.63215157173386 49.75074634732681 123.625 55 C123.61275390624996 55.4730859375 123.61275390624996 55.4730859375 123.55078125 57.8671875 C123.52050517993791 65.15362836161285 124.91265030791885 70.49287907785515 129.78125 76.0234375 C130.3484375 76.46945312499997 130.91562499999998 76.91546875 131.5 77.375 C132.0671875 77.836484375 132.63437499999998 78.29796875 133.21875 78.7734375 C139.2356924530992 82.91668296112533 144.8444866675237 82.74047103142044 152 82 C155.96963538572402 81.09753822016694 159.8607798171563 79.9505970405528 163.73095703125 78.691162109375 C168.19571808910632 77.28225336057022 171.3655599495014 76.6063338553177 176 78 C178.06249999999994 79.1640625 178.06249999999994 79.1640625 180 80.625 C193.22190307600044 89.82284561808729 209.56781264063767 97.10836266383353 226 95 C234.66437516783054 93.17875696099082 242.08152663203487 89.62583089398487 249.7109375 85.29296875 C254.6096124802039 83.3672425998248 258.21577141074533 84.38098191801367 263.0625 86.0625 C272.67244703036374 88.89149564264642 283.2213180328394 87.61893728118298 292 83 C296.3557068647943 80.17214108162585 300.0351719391583 77.26805973710623 303.1875 73.125 C305 71 305 71 308 70.125 C311 70 311 70 312.75390625 70.46484375 C318.0687917300587 71.73117298611834 323.6021200116159 71.64672108994876 329 71 C331.97155139769654 68.74162093775061 332.5961815305698 68.16632183413321 334 65 C334.19271484374997 64.56687500000001 334.19271484374997 64.56687500000001 335.16796875 62.375 C336.18291223469856 59.93636445997336 337.11924743866734 57.489725117510176 338 55 C338.8108203125 54.974218750000006 339.621640625 54.94843750000001 340.45703125 54.921875 C348.0336487400356 54.53378283520192 355.3225112786345 53.87687820044616 362 50 C365.72992074156764 45.833498204712015 367.132625541302 40.82220998440991 367.09765625 35.33203125 C367.096044921875 34.88569335937501 367.096044921875 34.88569335937501 367.087890625 32.626953125 C367.0795117187499 31.698183593750002 367.0711328125001 30.769414062500005 367.0625 29.8125 C367.06024414062495 29.342314453125 367.06024414062495 29.342314453125 367.048828125 26.962890625 C367.0370462582532 24.64186287587347 367.02059558103815 22.32096355545957 367 20 C382.82677438707583 26.828811283763685 393.5706753874414 39.00203211640692 400 55 C404.1807531024957 68.34792526994721 402.6774173256149 83.11429283021891 396.7265625 95.69140625 C394.7834913783927 98.98285096811668 393.7028789618164 100.76570701272783 390 102 C389.04296875 104.37890625000011 389.04296875 104.37890625000011 388.1875 107.5625 C381.9911250725761 128.8305086794664 381.9911250725761 128.8305086794664 375.3125 137.625 C371.15430450403244 143.22710979172922 369.80998317813965 147.8934813050613 368.65234375 154.703125 C366.8849902010289 163.63513934330285 362.39494848492564 169.8235360605521 355 175 C351.28082511766075 177.03669100699528 348.2224811335188 177.52781014168988 344 177 C341.3000933835887 175.2000622557258 339.4581135004437 173.91622700088737 338 171 C337.05176692007194 162.18609579804547 338.5406482969318 154.22114355184567 343.47265625 146.77734375 C346.587755747382 142.95527131704193 349.9515436929642 140.26398557319493 354.0625 137.5625 C359.163100702825 134.19843968912915 362.0484356653776 130.29121899011585 365 125 C363.53815941915514 125.22860058465886 362.08044581122317 125.48370392097496 360.625 125.75 C359.812890625 125.88921875 359.00078125000005 126.0284375 358.1640625 126.171875 C356 127 356 127 355.1484375 128.828125 C353.35334981840884 132.2229166699479 350.4725952708712 133.6742657042725 347 135 C343.2625370051705 135.6036187080431 339.535849738742 135.50749796304706 335.759765625 135.48828125 C328.7584192166548 135.619818074068 323.8120135083165 137.66517666279174 318.421875 142.140625 C312.62916563919174 146.58793089636242 302.804200897508 147.62316946613709 295.5546875 147.36328125 C287.5277031815363 146.22182935150283 279.4881292312457 144.07737956148617 272 141 C271.9749438476563 141.65371582031253 271.9749438476563 141.65371582031253 271.84814453125 144.9619140625 C269.97410228753694 193.48850523139316 269.97410228753694 193.48850523139316 268 217 C269.1227734375 216.9651953125 270.245546875 216.93039062499997 271.40234375 216.89453125 C287.1360690773511 216.55199731689368 287.1360690773511 216.55199731689368 294 220 C294.845625 220.41250000000002 295.69125 220.825 296.5625 221.25 C298.00000000000006 223 298.00000000000006 223 298.5625 226.4375 C298 230 298 230 296.0625 232.3125 C285.608430601567 238.07290558689164 271.5278010326027 236.9329525794452 260.11328125 234.92578125 C256.938906129799 233.5351585078787 255.21736062752 231.6473652558156 253 229 C252.50588989257813 225.93589782714844 252.50588989257813 225.93589782714844 252.69189453125 222.472412109375 C252.72050064086915 221.8212718963623 252.72050064086915 221.8212718963623 252.86526489257813 218.52610778808594 C252.95385137154682 217.10981570053775 253.043049614091 215.69356176493307 253.1328125 214.27734375 C253.20704502713403 212.8111917078881 253.27901930613865 211.34492375450634 253.34884643554688 209.87855529785156 C253.53906577531342 206.01669345830322 253.7608833902628 202.15726407939616 253.98907470703125 198.2974853515625 C254.21307438840785 194.4083198014472 254.40555611829467 190.5176107957144 254.6015625 186.626953125 C256.3884741752707 151.83457747418788 256.3884741752707 151.83457747418788 258 147 C258.068029665984 145.2720464840063 258.0849564460934 143.54164634919016 258.0625 141.8125 C258.05798828125 141.36197265625003 258.05798828125 141.36197265625003 258.03515625 139.08203125 C258.0235546875 138.3949609375 258.011953125 137.707890625 258 137 C257.657109375 137.42410156250003 257.31421875 137.848203125 256.9609375 138.28515625 C248.27394531916116 148.02057852162972 234.82280765865454 153.1715072878402 222 154 C220.9674609375 154.07734375 219.934921875 154.15468750000002 218.87109375 154.234375 C205.92992307079635 154.7643888162131 194.87075439836076 150.60370075329115 183.3515625 145.0703125 C180.28636859388348 143.67519102113636 177.26616379166416 142.7983955935179 174 142 C174 142.99 174 143.98000000000002 174 145 C165.31144668919785 145.66550621104017 158.03269121162128 144.24368640934756 151.125 138.6875 C146.89772321824512 136.40477053785236 143.96309286198084 137.06851683426248 139.28515625 137.625 C125.46518353588829 139.202547420398 114.33200373420749 137.2776040036157 103 129 C90.83830524042946 118.74409585703427 84.40963466145521 105.71753441049839 83 90 C82.36497558593749 90.17652099609376 81.729951171875 90.35304199218751 81.07568359375 90.534912109375 C78.17632250713277 91.33893883419745 75.27568338135626 92.13825747941195 72.375 92.9375 C71.3759765625 93.21529296875002 70.376953125 93.49308593749998 69.34765625 93.779296875 C52.71608248010483 98.35022608990494 35.93311454326647 99.24031185777699 20.1875 91.25 C9.249886358322328 84.82906997725973 4.223913427536047 76.05522598619098 0.72705078125 64.071533203125 C-0.7956808675728837 57.63852888014293 -1.455472983344663 51.06098872606012 -2.1875 44.5 C-2.273383789062507 43.74598907470704 -2.3592675781250136 42.99197814941405 -2.44775390625 42.215118408203125 C-6.05890319133502 10.224399135377837 -6.05890319133502 10.224399135377837 0 0 Z " fill="#F6BAC2" transform="translate(153,191)"/>
<path d="M0 0 C0.871233158111572 0.013027524948114433 1.742466316223144 0.026055049896228866 2.6401004791259766 0.03947734832763672 C4.574338931744979 0.06908667960502157 6.5084876711208 0.10502981436312098 8.442512512207031 0.14629745483398438 C11.678751079017125 0.21044994534844363 14.914330556482948 0.24733189640323872 18.15106201171875 0.277008056640625 C32.6990938278941 0.411664954785266 47.24643879779378 0.6247270429747402 61.79355430603027 0.835118293762207 C69.86788790804118 0.9516497955695797 77.9422337796705 1.0585367598310143 86.01685178279877 1.1533868908882141 C91.74060307966523 1.221451547200985 97.4641376648014 1.3006157681275567 103.18762743473053 1.3879205584526062 C106.59014726585413 1.43950265211447 109.9925660285306 1.486178993281385 113.39530563354492 1.520669937133789 C117.17370532620194 1.5615984106833594 120.95141268996343 1.6206493577911374 124.7294921875 1.68408203125 C125.84534194946289 1.691997680664059 126.96119171142578 1.6999133300781182 128.11085510253906 1.70806884765625 C134.7267977371274 1.8425052103726216 139.67045119830414 2.3108320576791357 144.56787109375 7.208251953125 C144.81787109375 10.208251953125 144.81787109375 10.208251953125 144.56787109375 13.208251953125 C141.70716566636918 16.06895738050582 139.70662302026125 15.491884108050726 135.697509765625 15.54296875 C135.34359413146973 15.548794708251961 135.34359413146973 15.548794708251961 133.5525665283203 15.578277587890625 C131.19701493270586 15.614426559472179 128.84156949145859 15.636211644856417 126.48583984375 15.657470703125 C124.8350588627666 15.678749538965036 123.18428664058206 15.700717988882104 121.53352355957031 15.723342895507813 C118.0556747951224 15.768866247531747 114.57783633696033 15.80758973017052 111.099853515625 15.84130859375 C106.70456685379915 15.884215846703995 102.30960841760513 15.941125250903326 97.91454887390137 16.002729415893555 C80.43809069609365 16.243601294408933 63.01551392485352 16.454606762513038 45.56787109375 15.208251953125 C45.61041015625 16.459931640625 45.65294921875 17.711611328125002 45.69677734375 19.001220703125 C45.81866484334066 22.58766803956553 45.548275250309416 23.23972406531746 43.50537109375 26.520751953125 C37.26644600667389 32.22870469236483 32.05208016078195 32.706128504245356 23.79443359375 32.497314453125 C17.1413709243508 31.901277361677614 11.317184393375278 30.105981293363584 6.56787109375 25.208251953125 C5.0206612268451885 21.75678378849119 5.496222699632952 17.933968447211583 5.56787109375 14.208251953125 C4.577871093750002 14.538251953125013 3.5878710937499996 14.868251953124997 2.56787109375 15.208251953125 C-3.0683427780103933 15.641806866337333 -6.491055725160856 14.678788543669583 -11.43212890625 12.208251953125 C-13.301355447263095 10.339025412111909 -12.724431192345131 7.71074026127809 -12.85791015625 5.216064453125 C-12.43212890625 3.208251953125 -12.43212890625 3.208251953125 -10.932525634765625 1.5957794189453125 C-7.347566341114943 -0.3935966776795965 -3.9846323954562344 -0.1176653470877227 0 0 Z " fill="#F4A295" transform="translate(12.43212890625,135.791748046875)"/>
<path d="M0 0 C8.33871389826129 6.847555648219242 11.256580477614875 20.927462737294036 12.625 31.125 C14.144777645099339 47.26227535887256 12.350923091623713 62.72426246120608 7 78 C6.573999878814675 79.30331389694925 6.148228322763316 80.60670251928502 5.72265625 81.91015625 C3.362139065351812 88.87631589056127 0.7740685643829011 94.7499545244653 -3.6875 100.625 C-7.845695495967561 106.22710979172916 -9.190016821860354 110.89348130506124 -10.34765625 117.703125 C-12.115009798971073 126.63513934330285 -16.605051515074365 132.8235360605521 -24 138 C-27.719174882339246 140.03669100699528 -30.77751886648116 140.52781014168988 -35 140 C-37.69990661641117 138.20006225572592 -39.54188649955637 136.91622700088726 -41 134 C-41.948233079928116 125.18609579804547 -40.45935170306825 117.22114355184567 -35.52734375 109.77734375 C-31.763288365416827 105.15903466111422 -27.374843619619014 102.12765568842468 -22.43359375 98.87109375 C-19.09488786777092 96.30409516639213 -16.85067975913728 93.26757016680824 -14.47265625 89.8203125 C-13 88 -13 88 -10 87 C-8.96875 84.359375 -8.96875 84.359375 -8 81 C-6.745725934213738 77.60702784768085 -5.487203536499919 74.21582407918874 -4.21875 70.828125 C-1.2054644516999815 61.87031914548385 -0.6125007300098559 53.09484530834703 -0.625 43.6875 C-0.6258862304687227 42.492861328125 -0.6267724609374454 41.298222656250005 -0.627685546875 40.0673828125 C-0.7404681789279266 31.692843007067665 -1.4829903510647 24.68951930412385 -5 17 C-5.308085937499982 16.316796874999994 -5.616171874999964 15.633593749999989 -5.93359375 14.9296875 C-6.2030078125000045 14.334140625000003 -6.472421875000009 13.738593750000007 -6.75 13.125 C-8.208661922129295 9.478345194676763 -8.44921390359957 6.893187164529877 -8 3 C-5.919773142377835 -0.3940543466466693 -3.7877352221380534 -0.4017294932570792 0 0 Z " fill="#F4A295" transform="translate(532,228)"/>
<path d="M0 0 C12.771733940650051 4.0364986281560675 21.065359371922682 13.527275754744238 27.52734375 24.84765625 C31.134886339562627 32.5699025889312 32.48503728944888 39.159610067708726 32.375 47.6875 C32.386601562500005 48.59822265625 32.39820312500001 49.5089453125 32.41015625 50.447265625 C32.38304950466227 56.66826367999836 31.1643680203166 60.58257681002641 27.8125 65.875 C24.654506137478165 67.83513412156526 21.509109970765735 67.78124897308328 18 67 C11.77941957962264 63.35868463197423 8.853087585628145 57.69035146966908 5.75 51.4375 C2.428015215799178 45.058385115195705 -0.9497288800783963 39.309449591534246 -5.75 33.9375 C-6.205764160156264 33.42372802734374 -6.661528320312527 32.9099560546875 -7.131103515625 32.380615234375 C-7.573815917968773 31.882473144531247 -8.016528320312489 31.384331054687493 -8.47265625 30.87109375 C-15.298631667647214 23.11670127400204 -18.785417928909226 17.34973887307555 -18.734375 6.84765625 C-18 4 -18 4 -15.83203125 1.66015625 C-10.731542786247246 -1.3297852632343847 -5.719412342038254 -0.8225671682931335 0 0 Z " fill="#FDFDFD" transform="translate(509,66)"/>
<path d="M0 0 C3.4375 1.125 3.4375 1.125 5.088134765625 3.24658203125 C6.696334052733846 6.6771356037148735 7.086971592473162 9.53559937680393 7.46484375 13.3046875 C7.502370071411121 13.649597320556666 7.502370071411121 13.649597320556666 7.6922760009765625 15.395050048828125 C8.009800641681124 18.317939369903797 8.299461584047322 21.24342357686203 8.591552734375 24.1689453125 C10.174642503223936 39.720993298114934 14.002759175284496 53.775891435689175 19.7890625 68.333984375 C21.898639570598448 73.86567612967076 23.06296434959205 78.19296443176376 22.4375 84.125 C19.55606709568815 87.91202610280982 16.89664250277201 89.65554190768864 12.4375 91.125 C8.051212381314372 91.59044271256028 3.6585768105232432 91.54120252748538 -0.75 91.5625 C-1.9314257812500273 91.59537109375003 -3.1128515624999977 91.6282421875 -4.330078125 91.662109375 C-11.921193443641641 91.70837101960115 -18.400064806786077 90.9071352079676 -24.5625 86.125 C-26.023039272092063 82.2302286077545 -25.961319427110055 80.34994538326657 -24.6875 76.4375 C-20.69550901340844 72.09327451459154 -14.405548787227701 69.69505354021737 -8.5625 69.125 C-6.842526286344992 69.10777442450023 -5.122394755050323 69.10382197012092 -3.40234375 69.109375 C-2.497341308593775 69.111630859375 -1.5923388671874932 69.11388671875 -0.659912109375 69.1162109375 C-0.31383911132815 69.11766113281249 -0.31383911132815 69.11766113281249 1.4375 69.125 C1.2714526367187773 68.52776123046874 1.1054052734374977 67.93052246093748 0.934326171875 67.315185546875 C-3.8461786036563126 49.97238310244842 -7.729535498034579 33.298304265768934 -8 15.25 C-8.022397460937498 14.315993652343764 -8.044794921874995 13.381987304687527 -8.06787109375 12.419677734375 C-8.053097618286472 8.180856603359246 -7.912429418917043 5.7309383877351365 -5.7578125 2 C-3.5625 0.125 -3.5625 0.125 0 0 Z " fill="#F4A296" transform="translate(274.5625,336.875)"/>
<path d="M0 0 C3.375 0.6875 3.375 0.6875 4.375 1.6875 C6.472339503270746 8.24958024183644 6.550355012256318 14.486163288423484 6.203125 21.30078125 C6.182202911376976 21.801048278808594 6.182202911376976 21.801048278808594 6.076324462890625 24.33270263671875 C5.937945709494841 27.555801723587876 5.7820538471860345 30.777761603797046 5.625 34 C5.525592491744817 36.21082868964345 5.4267989313521525 38.421685068524425 5.32861328125 40.632568359375 C4.6135137586737756 56.3371872308652 3.7020057129237216 72.02157885852239 2.375 87.6875 C3.4977734374999727 87.65269531249999 4.620546875000002 87.61789062499997 5.77734375 87.58203125 C21.511069077351067 87.23949731689368 21.511069077351067 87.23949731689368 28.375 90.6875 C29.220624999999984 91.10000000000002 30.066249999999968 91.51249999999999 30.9375 91.9375 C32.375 93.6875 32.375 93.6875 32.9375 97.125 C32.375 100.6875 32.375 100.6875 30.4375 103 C19.98343060156708 108.76040558689164 5.902801032602724 107.62045257944521 -5.51171875 105.61328125 C-8.686093870201091 104.22265850787863 -10.407639372479935 102.33486525581566 -12.625 99.6875 C-13.119110107421875 96.62339782714844 -13.119110107421875 96.62339782714844 -12.93310546875 93.159912109375 C-12.875893249511705 91.85763168334961 -12.81868103027341 90.55535125732422 -12.759735107421875 89.21360778808594 C-12.671148628453182 87.79731570053775 -12.58195038590901 86.38106176493307 -12.4921875 84.96484375 C-12.41795497286597 83.4986917078881 -12.34598069386135 82.03242375450634 -12.276153564453125 80.56605529785156 C-12.085934224686582 76.70419345830322 -11.86411660973721 72.84476407939616 -11.63592529296875 68.9849853515625 C-11.411925611592153 65.09581980144713 -11.219443881705331 61.20511079571446 -11.0234375 57.314453125 C-9.23652582472937 22.522077474188052 -9.23652582472937 22.522077474188052 -7.625 17.6875 C-7.43073165520201 14.259023470509419 -7.279847198069717 10.837009435901336 -7.1953125 7.404296875 C-7.1015625 5.27734375 -7.1015625 5.27734375 -6.625 1.6875 C-3.625 -0.3125 -3.625 -0.3125 0 0 Z " fill="#F4A296" transform="translate(418.625,320.3125)"/>
<path d="M0 0 C7.165627894860677 -0.281005015484709 13.945469992610697 0.7955680475188842 21 2 C16.95471828551672 16.517110266159705 16.95471828551672 16.517110266159705 13.1875 19.375 C10.403739248023498 20.17036021485046 7.884041269272416 20.061362580197283 5 20 C4.5049999999999955 20.16500000000002 4.5049999999999955 20.16500000000002 2 21 C1.8762500000000273 21.29906249999999 1.8762500000000273 21.29906249999999 1.25 22.8125 C-0.6461162816621027 26.130703492908708 -3.55597666266641 27.59602299522834 -7 29 C-10.734293678941867 29.614682705227892 -14.465673481299916 29.5074902112911 -18.240234375 29.48828125 C-25.24158078334517 29.61981807406795 -30.18798649168349 31.665176662791737 -35.578125 36.140625 C-41.36725743088232 40.58518473725803 -51.20294938544646 41.63230416627323 -58.44921875 41.359375 C-66.57819807558178 40.21409766775878 -76.03453390641795 38.44986528891968 -83 34 C-83.8125 31.84375 -83.8125 31.84375 -84 29.5 C-84.3671875 27.09765625 -84.3671875 27.09765625 -85 25 C-88.125 22.9375 -88.125 22.9375 -91 22 C-90.33999999999997 20.680000000000007 -89.68 19.360000000000014 -89 18 C-88.73783691406248 18.118553466796868 -88.73783691406248 18.118553466796868 -87.4111328125 18.718505859375 C-85.02562186839913 19.79493997734005 -82.63784939157705 20.86626388491368 -80.25 21.9375 C-79.83749999999998 22.124091796875007 -79.83749999999998 22.124091796875007 -77.75 23.068359375 C-76.95078124999998 23.42607421874999 -76.15156250000001 23.783789062499977 -75.328125 24.15234375 C-74.594970703125 24.482263183593773 -73.86181640625 24.81218261718749 -73.1064453125 25.152099609375 C-65.55709091047663 28.190916002308143 -55.7970407216813 28.324602212180366 -47.97265625 26.1640625 C-41.941957515657634 23.394958920902866 -37.943781155895124 19.262727833860026 -34 14 C-32.80374999999998 14.329999999999984 -31.607500000000016 14.660000000000025 -30.375 15 C-23.43256167739878 16.531744328319974 -14.81457670140361 17.749462245945267 -8.21484375 14.72265625 C-5.920893541512726 12.938472754509917 -4.981843614716013 11.74964025311806 -3.8125 9.125 C-3.4941015625000205 8.426328124999998 -3.175703124999984 7.7276562499999955 -2.84765625 7.0078125 C-0.8814432989690886 2.3505154639175316 -0.8814432989690886 2.3505154639175316 0 0 Z " fill="#F7CBC5" transform="translate(507,297)"/>
<path d="M0 0 C2.3046875 1.296875 2.3046875 1.296875 4 3 C4.860226306494866 9.666753875335203 4.860226306494866 9.666753875335203 2.39453125 13.48828125 C-0.36895311785289664 16.38700955102678 -3.39424280364247 18.30186731330086 -6.8125 20.3125 C-18.96311849926414 27.864403464784658 -23.88639811895007 37.33691283651791 -28.75 50.6875 C-30 54 -30 54 -32 56 C-34.93058627738222 56.279103454988785 -37.155482734100644 56.477972163532286 -40 56 C-43.34245114869461 52.981011865695194 -43.87402804156807 49.505468158965186 -44.23828125 45.15234375 C-44.527427622880765 32.62774033521704 -40.58776231926964 21.619024177659995 -32.328125 12.06640625 C-23.9518165316303 4.0301615869701095 -11.821318510022763 -2.525297143007961 0 0 Z " fill="#FDFCFC" transform="translate(207,89)"/>
<path d="M0 0 C5.875 0.875 5.875 0.875 7 2 C6.94921875 3.78515625 6.94921875 3.78515625 6.6875 6.0625 C6.648183593749991 6.429238281250008 6.648183593749991 6.429238281250008 6.44921875 8.28515625 C6 11 6 11 4.98046875 14.62109375 C3.6738513782840982 19.729650446104074 3.632151571733914 24.750746347326782 3.625 30 C3.600507812499984 30.946171875000005 3.576015625000025 31.89234375000001 3.55078125 32.8671875 C3.520806131897416 40.08119925669024 4.902767218886083 45.37918739160256 9.640625 50.91796875 C10.171718750000025 51.3369140625 10.702812499999993 51.755859375 11.25 52.1875 C11.844257812500018 52.65800781249999 12.43851562499998 53.12851562499998 13.05078125 53.61328125 C16.27096710342306 55.90419503349739 19.59265810928389 57.99984605895622 23 60 C22.83499999999998 61.27875 22.670000000000016 62.557500000000005 22.5 63.875 C20.123489254366916 89.61443946039515 20.123489254366916 89.61443946039515 28 100 C35.11280704942965 108.16356263627722 43.803589065400956 110.07710364508802 54 112 C54.79953137796406 115.28696233163004 55.096589359209815 116.71023192237061 54 120 C42.518778413566736 120.87941271725873 34.59955572870604 117.10560189218182 25.55078125 110.20703125 C17.538019250603895 103.27409016323304 13.37895142397997 95.49742300237 12 85 C11.888159620912006 82.12325574914615 11.905018791887812 79.25333474963168 11.9375 76.375 C11.942011718749995 75.62476562500001 11.946523437499991 74.87453125000002 11.951171875 74.1015625 C11.963793471540555 72.06768237174748 11.981658788253412 70.03383659145749 12 68 C12 66.68 12 65.36000000000001 12 64 C10.633188489027702 63.077402230093696 9.2585006199904 62.16485345961496 7.8515625 61.3046875 C0.491349957517059 56.11837739622507 -4.428629595224606 48.82309842184458 -6 40 C-7.374739462540276 26.05253934054784 -6.337157740252508 12.674315480504958 0 0 Z " fill="#F4A59D" transform="translate(273,216)"/>
<path d="M0 0 C1 1 1 1 1.3828125 3.76953125 C1 7 1 7 -1.1953125 9.38671875 C-2.162109375 10.1459765625 -3.12890625 10.905234375 -4.125 11.6875 C-10.595020999176086 17.269336152158527 -15.517807072482924 22.00802908704462 -16.23583984375 30.9306640625 C-16.500604043975102 38.29435083937324 -16.330451046965607 45.64110937718851 -16 53 C-17.18335937500001 53.4962890625 -18.366718750000018 53.992578124999994 -19.5859375 54.50390625 C-44.30216007632248 65.04837873203707 -44.30216007632248 65.04837873203707 -51 76 C-53.435690330009265 82.49817014242326 -54.327235777765566 89.24230553950042 -54.7890625 96.13671875 C-55 98 -55 98 -56 99 C-59 99.125 -59 99.125 -62 99 C-63.98786506384437 97.01213493615565 -63.288100187907105 93.27148913761215 -63.3125 90.5625 C-63.3125 78.47064005778307 -59.13098925199995 70.89891601468882 -51 62 C-50.427656249999984 61.3722265625 -49.855312500000025 60.74445312500001 -49.265625 60.09765625 C-46.093755532538296 57.00297829612697 -43.08083372914348 54.9575545221856 -38.97265625 53.3203125 C-29.95763912160038 49.66511457522238 -29.95763912160038 49.66511457522238 -27 47 C-25.710485472332095 43.07716106846294 -25.74269833453087 40.00065830247365 -25.90234375 35.88671875 C-26.257870807825896 21.736741848529732 -17.757174083781308 11.55202463628899 -8.5625 1.87109375 C-5.451531025114548 -0.40048268135690357 -3.770256554717321 -0.46592659127898983 0 0 Z " fill="#F4A59C" transform="translate(348,13)"/>
<path d="M0 0 C8.226379895603998 0.7478527177821803 15.5766425234022 3.7532402494547625 21.21484375 10.01953125 C26.643776096397517 17.533826021301252 31.439299234372584 24.552791114992615 31.21484375 34.01953125 C32.01406250000002 34.03371093749999 32.81328124999999 34.04789062500001 33.63671875 34.0625 C43.53874806532474 34.492517705008225 52.69827519988553 36.39267066159738 60.21484375 43.26953125 C67.05927197428741 50.8985646609741 68.4938705181437 59.77760210618561 68.44921875 69.66796875 C68.13021489832727 74.22972382892004 66.93210763600655 77.79792419690065 65.21484375 82.01953125 C63.23484374999998 82.34953124999998 61.25484375000002 82.67953125 59.21484375 83.01953125 C58.18659367616078 77.01613274196947 58.18270452027525 71.32060665910222 58.4296875 65.248046875 C58.525729574461195 60.39792211471075 57.88394280821791 57.23521107092364 55.21484375 53.01953125 C46.32967309931814 44.71382825044955 37.95117810686389 43.13727737922514 26.21484375 42.01953125 C25.822968749999973 41.11203125 25.431093750000002 40.20453125 25.02734375 39.26953125 C24.751484375000018 38.63402343749999 24.47562499999998 37.99851562500001 24.19140625 37.34375 C23.470777358502346 35.62865323823564 22.78285403793734 33.89972813114255 22.11328125 32.1640625 C16.912598587513116 18.927486304186687 10.098702826275428 11.965927746742494 -2.78515625 6.01953125 C-2.827877251320899 4.353412198484193 -2.825794570757864 2.685702401071751 -2.78515625 1.01953125 C-1.78515625 0.01953125 -1.78515625 0.01953125 0 0 Z " fill="#F4A59C" transform="translate(448.78515625,100.98046875)"/>
<path d="M0 0 C0.516269531249975 -0.0012890624999997158 0.516269531249975 -0.0012890624999997158 3.12890625 -0.0078125 C3.668378906249984 -0.003945312500000853 3.668378906249984 -0.003945312500000853 6.3984375 0.015625 C7.454179687500016 0.007890625000001705 8.509921874999975 0.0001562500000034106 9.59765625 -0.0078125 C17.967273782560994 0.012930046549101348 25.386095911945745 1.0501566398998676 33.1484375 4.265625 C33.55449218749999 4.430624999999999 33.55449218749999 4.430624999999999 35.609375 5.265625 C37.7734375 6.265625 37.7734375 6.265625 40.7734375 8.265625 C44.779318303390426 7.893457019955278 48.117707088327904 6.307076718121131 51.7734375 4.703125 C60.87657483538567 1.1360972332463959 70.56163770256961 0.8112000759636047 79.7734375 4.265625 C82.8359375 6.578124999999993 82.8359375 6.578124999999993 84.7734375 9.265625 C84.5859375 12.078125 84.5859375 12.078125 83.7734375 14.265625 C82.31463641033099 14.124547528365348 80.85640198558713 13.977600854200567 79.3984375 13.828125 C78.99238281250001 13.787519531249998 78.99238281250001 13.787519531249998 76.9375 13.58203125 C74.7734375 13.265625 74.7734375 13.265625 72.7734375 12.265625 C61.49588695393663 11.278839327219458 54.174856844463704 12.998012103690868 44.7734375 19.265625 C39.04116006258624 19.265625 35.86421299252254 17.285178370702653 31.375 13.8359375 C23.274991941803364 8.946743446854299 15.046418946971755 8.779175416496912 5.7734375 8.640625 C3.3358519280455994 8.589894811197617 0.8983402759085379 8.535424037947294 -1.5390625 8.4765625 C-2.0733789062500136 8.46778076171875 -2.0733789062500136 8.46778076171875 -4.77734375 8.42333984375 C-7.2265625 8.265625 -7.2265625 8.265625 -8.2265625 7.265625 C-8.4765625 4.828125 -8.4765625 4.828125 -8.2265625 2.265625 C-4.914386391903292 0.05750759460220678 -3.8567400477225533 0.00933028523727586 0 0 Z " fill="#F4A59D" transform="translate(359.2265625,44.734375)"/>
<path d="M0 0 C4.202183189044547 3.0816010052993477 6.799856250689686 6.931700627912676 8 12 C9.055274793731087 21.22721984274608 7.446222515630893 27.953745602111894 2.25 35.5625 C-0.49302242350182723 37.3149865483484 -2.799731253043319 37.623829542122195 -6.0390625 37.44921875 C-9.460420824304038 36.66544144463154 -10.92973726778007 34.72091673377474 -13 32 C-17.00429782945247 25.209256479006342 -16.880971713500514 18.694358451857937 -16 11 C-13.236822753569584 3.123356814773146 -8.926800749947347 -1.6770506301270984 0 0 Z " fill="#0C0A0B" transform="translate(366,124)"/>
<path d="M0 0 C4.257312393751448 0.8914528887111715 6.223181753310939 4.333640754644961 8.60546875 7.67578125 C11.609574946493211 13.599608637466957 10.78368744175151 21.132093993015133 9.26953125 27.44921875 C7.899908538955685 31.2351677073583 6.664740768243519 33.8035363548573 3.68359375 36.54296875 C0.15248169252160437 37.69263314080692 -2.311354394120684 37.94547615798277 -6.00390625 37.41796875 C-10.181423456048776 34.28483084546343 -12.860341371007678 30.515998439553584 -14.00390625 25.41796875 C-14.82877140278984 17.803828878093782 -15.067643205612256 11.303089972165537 -10.390625 4.96875 C-9.933007812499994 4.456992187499992 -9.475390624999989 3.9452343749999983 -9.00390625 3.41796875 C-8.533398437500011 2.864960937500001 -8.062890624999994 2.3119531250000023 -7.578125 1.7421875 C-5.25883103077112 -0.20878186865654413 -2.935763066390308 -0.11312114567742526 0 0 Z " fill="#0C0A0B" transform="translate(241.00390625,123.58203125)"/>
<path d="M0 0 C0.16500000000002046 0.3300000000000125 0.16500000000002046 0.3300000000000125 1 2 C-0.18593750000002274 1.9419921875000057 -1.3718749999999886 1.8839843750000114 -2.59375 1.82421875 C-11.048271614172904 1.5397970904639067 -18.818379372064953 1.6783717502621016 -26.9375 4.25 C-27.592343749999998 4.454558105468749 -28.247187499999995 4.659116210937498 -28.921875 4.869873046875 C-32.80932554707323 6.222808138586657 -35.440581247185435 7.761805957509523 -38 11 C-38.75 14.25 -38.75 14.25 -39 17 C-46.45058077843379 17.687041260306387 -51.16235621498737 16.78605899233139 -57 12 C-59.31921884237693 9.93967070281866 -59.92826341255244 9.293467857740126 -60.6875 6.1875 C-59.75999507933733 1.887249913291214 -57.842501569164995 0.7169719566508661 -54.28515625 -1.6796875 C-38.427240963933855 -10.842038554171552 -15.467972761371357 -9.047304822688915 0 0 Z " fill="#0E0B0C" transform="translate(322,176)"/>
<path d="M0 0 C1.9799999999999898 0 3.960000000000008 0 6 0 C7.130530973451329 4.522123893805315 7.130530973451329 4.522123893805315 6.5390625 6.6875 C4.055803545963329 17.340321020215356 5.6900325343411 29.62857875484599 10.82421875 39.1875 C15.046330895144337 45.696005100820486 22.118586532119963 48.12254063175834 29 51 C29.042543562981166 52.999547460114115 29.040807829325047 55.0004163630731 29 57 C27.4798274453629 58.5201725546371 26.118876583095584 58.316106029093476 24 58.4375 C16.51268297510714 58.34242295841406 11.445722962739694 53.502029826848116 6.1875 48.625 C2.8450294857502456 45.09726553114979 0.7831914361433405 41.4992561698987 -1 37 C-1.299062499999991 36.3077734375 -1.5981250000000102 35.61554687500001 -1.90625 34.90234375 C-5.3660632176134015 25.564051593200873 -6.104081479903158 12.590926739569028 -2 3.375 C-1.3400000000000034 2.2612499999999898 -0.6800000000000068 1.147500000000008 0 0 Z " fill="#F4A59C" transform="translate(153,191)"/>
<path d="M0 0 C0.375 3.1875 0.375 3.1875 0 7 C-2.0656466675188767 9.400616397386784 -3.335485562347401 10.475918763472862 -6 12 C-6.684492187499984 12.394453125000013 -7.368984374999968 12.788906249999997 -8.07421875 13.1953125 C-20.224742710652095 18.79120598268355 -36.067601916168485 16.490246549673742 -49 15 C-49 14.670000000000016 -49 14.340000000000003 -49 14 C-46.69 14 -44.379999999999995 14 -42 14 C-42.10312499999998 13.113124999999997 -42.20625000000001 12.226249999999993 -42.3125 11.3125 C-41.891679648948525 6.8518042788544165 -40.39216300948311 5.850860401586857 -37 3 C-34.49705381364936 1.8441354555621388 -32.29704004278483 0.9643274714420045 -29.6875 0.1875 C-28.996159667968755 -0.02334228515624659 -28.30481933593751 -0.23418457031249318 -27.592529296875 -0.451416015625 C-18.84333977188345 -2.8917870864291615 -8.385463067701494 -3.9923141565156186 0 0 Z " fill="#BF6158" transform="translate(325,179)"/>
<path d="M0 0 C0.8256445312500205 -0.03738281249999886 1.651289062499984 -0.07476562499999773 2.501953125 -0.11328125 C8.878551487259415 -0.20372945372000117 12.810275941872817 1.452866238095595 17.8125 5.375 C18.8125 6.375 18.8125 6.375 19.125 9.6875 C18.8125 13.375 18.8125 13.375 17.125 15.6875 C11.743081064784349 19.614846250022225 6.817501787294987 19.71229792835757 0.375 19.6875 C-0.45837890625000455 19.70361328125 -1.291757812500009 19.7197265625 -2.150390625 19.736328125 C-8.159052193358718 19.741078055093567 -11.952142672087803 18.42405964101107 -17.0625 15.1875 C-18.63039095450773 12.661453462181981 -18.77666721562815 10.243442516762684 -18.6796875 7.3125 C-18.1875 5.375 -18.1875 5.375 -15.375 2.9375 C-10.040848522098543 0.3227198637738127 -5.819614969537383 0.09765944266194992 0 0 Z " fill="#F4A49B" transform="translate(385.1875,165.625)"/>
<path d="M0 0 C4.714870473662927 -0.6471390846203917 8.22516646432166 -0.029269126227006836 12.29296875 2.5234375 C16.994063655839454 6.58983080527986 20.746433732726814 12.532968922476783 21.203125 18.77734375 C21.218593749999968 19.820195312500005 21.23406250000005 20.86304687500001 21.25 21.9375 C21.275781250000023 22.97777343749999 21.301562500000045 24.01804687500001 21.328125 25.08984375 C20.95735637196435 28.378208367696885 20.360854812989487 29.708897715576143 18 32 C14.61653997082442 32.67669200583512 13.176150105681927 32.95751584068353 10 32 C3.8965472209669088 27.22552484220796 -0.4842658802836013 19.578670598582022 -2 12 C-2.1131196486858244 10.482092156005848 -2.174622990119815 8.959562567831654 -2.1875 7.4375 C-2.201679687500018 6.673085937499991 -2.2158593750000364 5.90867187500001 -2.23046875 5.12109375 C-2 3 -2 3 0 0 Z " fill="#FDFCFB" transform="translate(536,154)"/>
<path d="M0 0 C0.9938671874999727 0.00902343749999801 1.9877343750000023 0.018046875000003126 3.01171875 0.02734375 C3.391347656249991 0.033144531250002274 3.391347656249991 0.033144531250002274 5.3125 0.0625 C5.972499999999968 1.3825000000000003 6.632499999999993 2.7025000000000006 7.3125 4.0625 C4.387910719510842 7.3911894386832415 2.2581793012807907 8.59133503135346 -2 9.6875 C-8.759180301730822 11.92851165084123 -11.167459960295389 16.1718207498821 -14.6875 22.0625 C-17.240745031072464 24.61574503107248 -19.047085550562826 24.67449565371851 -22.5625 25.375 C-28.349982432254365 26.75791097544908 -28.349982432254365 26.75791097544908 -31.25 29.375 C-32.787291083395445 32.24906593852192 -34.312657334618734 35.10658826943026 -35.6875 38.0625 C-37.66749999999999 37.7325 -39.64750000000001 37.4025 -41.6875 37.0625 C-42.20690401690382 31.2451750106771 -41.667525796462144 27.711553809538458 -38.296875 22.8828125 C-34.36669470033581 18.437511481447785 -29.707023374026363 16.270410336438076 -24.0625 14.75 C-19.415075592056667 13.360563836800445 -17.65038201514335 10.952722482653705 -15.02734375 7 C-11.07447037823917 1.2838915673662683 -6.6355853294884355 -0.07806570975868965 0 0 Z " fill="#F4A69D" transform="translate(261.6875,48.9375)"/>
<path d="M0 0 C0.8063085937500318 -0.007734375000000071 1.6126171875000068 -0.015468750000000142 2.443359375 -0.0234375 C3.218730468749982 -0.02085937500000057 3.9941015625000205 -0.01828124999999936 4.79296875 -0.015625 C5.143070068359407 -0.01449707031249936 5.143070068359407 -0.01449707031249936 6.914794921875 -0.0087890625 C8.8125 0.25 8.8125 0.25 11.8125 2.25 C11.43743654616651 4.671709965385276 11.163975847162192 5.931781958934714 9.318603515625 7.6025390625 C3.997095845660681 10.793434284615799 -1.375850590135144 13.025719188545803 -7.25 15 C-8.109160156250027 15.3029296875 -8.968320312499998 15.605859375000001 -9.853515625 15.91796875 C-17.362278528451952 18.499285256152305 -24.278254125609806 19.388758699550706 -32.1875 19.25 C-32.51750000000001 17.6 -32.8475 15.95 -33.1875 14.25 C-23.67990302605051 5.03453589396514 -13.313055944257712 -0.1295674544453309 0 0 Z " fill="#FDFBFB" transform="translate(281.1875,9.75)"/>
<path d="M0 0 C3.4178490437187747 1.2224890774350001 6.046599576226214 2.6180497959856552 8.3359375 5.43359375 C8.5234375 8.87109375 8.5234375 8.87109375 7.3359375 12.43359375 C2.0451350623374083 16.61424221906853 -3.854915677744316 17.056655726112183 -10.3515625 16.93359375 C-11.179785156250006 16.949062499999997 -12.008007812500011 16.964531249999993 -12.861328125 16.98046875 C-16.908843099882972 16.954543914292174 -19.14376014548128 16.74780231474182 -22.671875 14.6171875 C-24.6640625 12.43359375 -24.6640625 12.43359375 -25.8515625 8.99609375 C-25.6640625 5.43359375 -25.6640625 5.43359375 -24.4453125 3.90625 C-17.550149535479363 -1.9242186832343577 -8.594844470941553 -1.8273496309186612 0 0 Z " fill="#F4A49B" transform="translate(219.6640625,163.56640625)"/>
<path d="M0 0 C8.28388561184704 3.873979777813858 15.489146878148006 11.53264835318052 19 20 C19.3125 23.625 19.3125 23.625 19 27 C16 29 16 29 13.3125 29 C4.696968212759998 26.399084743474702 -1.103480795783696 19.252825394038723 -6 12 C-7.812348082200515 8.131333901456642 -8.198967739367333 5.27780639639785 -8 1 C-5.008185825906935 -0.4959070870465183 -3.3583794043658486 -0.42743010601019193 0 0 Z " fill="#FDFBFB" transform="translate(445,115)"/>
</svg>
